ISO-10303-21;
HEADER;
/* Generated by software containing ST-Developer
 * from STEP Tools, Inc. (www.steptools.com) 
 */

FILE_DESCRIPTION(
/* description */ (''),
/* implementation_level */ '2;1');

FILE_NAME(
/* name */ '.wav player case base.step',
/* time_stamp */ '2026-01-14T08:29:21+06:00',
/* author */ (''),
/* organization */ (''),
/* preprocessor_version */ 'ST-DEVELOPER v20.1',
/* originating_system */ 'Autodesk Translation Framework v14.21.0.0',
/* authorisation */ '');

FILE_SCHEMA (('AUTOMOTIVE_DESIGN { 1 0 10303 214 3 1 1 }'));
ENDSEC;

DATA;
#10=MECHANICAL_DESIGN_GEOMETRIC_PRESENTATION_REPRESENTATION('',(#13),#1163);
#11=SHAPE_REPRESENTATION_RELATIONSHIP('SRR','None',#1170,#12);
#12=ADVANCED_BREP_SHAPE_REPRESENTATION('',(#14),#1162);
#13=STYLED_ITEM('',(#1179),#14);
#14=MANIFOLD_SOLID_BREP('Base',#703);
#15=FACE_BOUND('',#91,.T.);
#16=FACE_BOUND('',#95,.T.);
#17=FACE_BOUND('',#113,.T.);
#18=FACE_BOUND('',#115,.T.);
#19=PLANE('',#720);
#20=PLANE('',#724);
#21=PLANE('',#725);
#22=PLANE('',#729);
#23=PLANE('',#734);
#24=PLANE('',#735);
#25=PLANE('',#741);
#26=PLANE('',#745);
#27=PLANE('',#749);
#28=PLANE('',#750);
#29=PLANE('',#751);
#30=PLANE('',#752);
#31=PLANE('',#753);
#32=PLANE('',#754);
#33=PLANE('',#755);
#34=PLANE('',#756);
#35=PLANE('',#757);
#36=PLANE('',#758);
#37=PLANE('',#759);
#38=PLANE('',#760);
#39=PLANE('',#761);
#40=PLANE('',#762);
#41=PLANE('',#763);
#42=PLANE('',#764);
#43=PLANE('',#765);
#44=PLANE('',#766);
#45=PLANE('',#767);
#46=PLANE('',#768);
#47=PLANE('',#769);
#48=PLANE('',#770);
#49=FACE_OUTER_BOUND('',#87,.T.);
#50=FACE_OUTER_BOUND('',#88,.T.);
#51=FACE_OUTER_BOUND('',#89,.T.);
#52=FACE_OUTER_BOUND('',#90,.T.);
#53=FACE_OUTER_BOUND('',#92,.T.);
#54=FACE_OUTER_BOUND('',#93,.T.);
#55=FACE_OUTER_BOUND('',#94,.T.);
#56=FACE_OUTER_BOUND('',#96,.T.);
#57=FACE_OUTER_BOUND('',#97,.T.);
#58=FACE_OUTER_BOUND('',#98,.T.);
#59=FACE_OUTER_BOUND('',#99,.T.);
#60=FACE_OUTER_BOUND('',#100,.T.);
#61=FACE_OUTER_BOUND('',#101,.T.);
#62=FACE_OUTER_BOUND('',#102,.T.);
#63=FACE_OUTER_BOUND('',#103,.T.);
#64=FACE_OUTER_BOUND('',#104,.T.);
#65=FACE_OUTER_BOUND('',#105,.T.);
#66=FACE_OUTER_BOUND('',#106,.T.);
#67=FACE_OUTER_BOUND('',#107,.T.);
#68=FACE_OUTER_BOUND('',#108,.T.);
#69=FACE_OUTER_BOUND('',#109,.T.);
#70=FACE_OUTER_BOUND('',#110,.T.);
#71=FACE_OUTER_BOUND('',#111,.T.);
#72=FACE_OUTER_BOUND('',#112,.T.);
#73=FACE_OUTER_BOUND('',#114,.T.);
#74=FACE_OUTER_BOUND('',#116,.T.);
#75=FACE_OUTER_BOUND('',#117,.T.);
#76=FACE_OUTER_BOUND('',#118,.T.);
#77=FACE_OUTER_BOUND('',#119,.T.);
#78=FACE_OUTER_BOUND('',#120,.T.);
#79=FACE_OUTER_BOUND('',#121,.T.);
#80=FACE_OUTER_BOUND('',#122,.T.);
#81=FACE_OUTER_BOUND('',#123,.T.);
#82=FACE_OUTER_BOUND('',#124,.T.);
#83=FACE_OUTER_BOUND('',#125,.T.);
#84=FACE_OUTER_BOUND('',#126,.T.);
#85=FACE_OUTER_BOUND('',#127,.T.);
#86=FACE_OUTER_BOUND('',#128,.T.);
#87=EDGE_LOOP('',(#465,#466,#467,#468));
#88=EDGE_LOOP('',(#469));
#89=EDGE_LOOP('',(#470,#471,#472,#473));
#90=EDGE_LOOP('',(#474,#475,#476,#477,#478,#479,#480));
#91=EDGE_LOOP('',(#481));
#92=EDGE_LOOP('',(#482,#483,#484,#485,#486,#487));
#93=EDGE_LOOP('',(#488,#489,#490,#491));
#94=EDGE_LOOP('',(#492,#493,#494,#495,#496,#497,#498));
#95=EDGE_LOOP('',(#499));
#96=EDGE_LOOP('',(#500,#501,#502,#503));
#97=EDGE_LOOP('',(#504,#505,#506,#507,#508,#509,#510,#511,#512,#513,#514,
#515));
#98=EDGE_LOOP('',(#516,#517,#518,#519,#520,#521,#522,#523));
#99=EDGE_LOOP('',(#524,#525,#526,#527));
#100=EDGE_LOOP('',(#528,#529,#530,#531));
#101=EDGE_LOOP('',(#532));
#102=EDGE_LOOP('',(#533,#534,#535,#536));
#103=EDGE_LOOP('',(#537));
#104=EDGE_LOOP('',(#538,#539,#540,#541));
#105=EDGE_LOOP('',(#542));
#106=EDGE_LOOP('',(#543,#544,#545,#546));
#107=EDGE_LOOP('',(#547,#548,#549,#550));
#108=EDGE_LOOP('',(#551,#552,#553,#554));
#109=EDGE_LOOP('',(#555,#556,#557,#558));
#110=EDGE_LOOP('',(#559,#560,#561,#562));
#111=EDGE_LOOP('',(#563,#564,#565,#566));
#112=EDGE_LOOP('',(#567,#568,#569,#570,#571,#572,#573));
#113=EDGE_LOOP('',(#574));
#114=EDGE_LOOP('',(#575,#576,#577,#578,#579,#580,#581));
#115=EDGE_LOOP('',(#582));
#116=EDGE_LOOP('',(#583,#584,#585,#586));
#117=EDGE_LOOP('',(#587,#588,#589,#590));
#118=EDGE_LOOP('',(#591,#592,#593,#594));
#119=EDGE_LOOP('',(#595,#596,#597,#598));
#120=EDGE_LOOP('',(#599,#600,#601,#602,#603,#604,#605,#606));
#121=EDGE_LOOP('',(#607,#608,#609,#610,#611,#612));
#122=EDGE_LOOP('',(#613,#614,#615,#616));
#123=EDGE_LOOP('',(#617,#618,#619,#620,#621,#622));
#124=EDGE_LOOP('',(#623,#624,#625,#626));
#125=EDGE_LOOP('',(#627,#628,#629,#630,#631,#632));
#126=EDGE_LOOP('',(#633,#634,#635,#636,#637,#638,#639,#640));
#127=EDGE_LOOP('',(#641,#642,#643,#644,#645,#646,#647,#648,#649,#650,#651,
#652));
#128=EDGE_LOOP('',(#653,#654,#655,#656));
#129=LINE('',#966,#209);
#130=LINE('',#974,#210);
#131=LINE('',#977,#211);
#132=LINE('',#980,#212);
#133=LINE('',#982,#213);
#134=LINE('',#984,#214);
#135=LINE('',#986,#215);
#136=LINE('',#988,#216);
#137=LINE('',#989,#217);
#138=LINE('',#992,#218);
#139=LINE('',#994,#219);
#140=LINE('',#996,#220);
#141=LINE('',#997,#221);
#142=LINE('',#1003,#222);
#143=LINE('',#1006,#223);
#144=LINE('',#1008,#224);
#145=LINE('',#1010,#225);
#146=LINE('',#1012,#226);
#147=LINE('',#1013,#227);
#148=LINE('',#1021,#228);
#149=LINE('',#1024,#229);
#150=LINE('',#1027,#230);
#151=LINE('',#1029,#231);
#152=LINE('',#1031,#232);
#153=LINE('',#1033,#233);
#154=LINE('',#1035,#234);
#155=LINE('',#1037,#235);
#156=LINE('',#1039,#236);
#157=LINE('',#1041,#237);
#158=LINE('',#1043,#238);
#159=LINE('',#1045,#239);
#160=LINE('',#1046,#240);
#161=LINE('',#1049,#241);
#162=LINE('',#1051,#242);
#163=LINE('',#1055,#243);
#164=LINE('',#1058,#244);
#165=LINE('',#1065,#245);
#166=LINE('',#1072,#246);
#167=LINE('',#1077,#247);
#168=LINE('',#1079,#248);
#169=LINE('',#1080,#249);
#170=LINE('',#1083,#250);
#171=LINE('',#1084,#251);
#172=LINE('',#1087,#252);
#173=LINE('',#1088,#253);
#174=LINE('',#1091,#254);
#175=LINE('',#1093,#255);
#176=LINE('',#1094,#256);
#177=LINE('',#1097,#257);
#178=LINE('',#1098,#258);
#179=LINE('',#1101,#259);
#180=LINE('',#1102,#260);
#181=LINE('',#1105,#261);
#182=LINE('',#1107,#262);
#183=LINE('',#1109,#263);
#184=LINE('',#1110,#264);
#185=LINE('',#1113,#265);
#186=LINE('',#1115,#266);
#187=LINE('',#1117,#267);
#188=LINE('',#1118,#268);
#189=LINE('',#1121,#269);
#190=LINE('',#1123,#270);
#191=LINE('',#1124,#271);
#192=LINE('',#1127,#272);
#193=LINE('',#1129,#273);
#194=LINE('',#1130,#274);
#195=LINE('',#1132,#275);
#196=LINE('',#1133,#276);
#197=LINE('',#1135,#277);
#198=LINE('',#1138,#278);
#199=LINE('',#1140,#279);
#200=LINE('',#1142,#280);
#201=LINE('',#1143,#281);
#202=LINE('',#1146,#282);
#203=LINE('',#1148,#283);
#204=LINE('',#1151,#284);
#205=LINE('',#1152,#285);
#206=LINE('',#1155,#286);
#207=LINE('',#1156,#287);
#208=LINE('',#1158,#288);
#209=VECTOR('',#777,3.1);
#210=VECTOR('',#786,10.);
#211=VECTOR('',#789,10.);
#212=VECTOR('',#792,10.);
#213=VECTOR('',#793,10.);
#214=VECTOR('',#794,10.);
#215=VECTOR('',#795,10.);
#216=VECTOR('',#796,10.);
#217=VECTOR('',#797,10.);
#218=VECTOR('',#800,10.);
#219=VECTOR('',#801,10.);
#220=VECTOR('',#802,10.);
#221=VECTOR('',#803,10.);
#222=VECTOR('',#810,10.);
#223=VECTOR('',#813,10.);
#224=VECTOR('',#814,10.);
#225=VECTOR('',#815,10.);
#226=VECTOR('',#816,10.);
#227=VECTOR('',#817,10.);
#228=VECTOR('',#824,10.);
#229=VECTOR('',#827,10.);
#230=VECTOR('',#830,10.);
#231=VECTOR('',#831,10.);
#232=VECTOR('',#832,10.);
#233=VECTOR('',#833,10.);
#234=VECTOR('',#834,10.);
#235=VECTOR('',#835,10.);
#236=VECTOR('',#836,10.);
#237=VECTOR('',#837,10.);
#238=VECTOR('',#838,10.);
#239=VECTOR('',#839,10.);
#240=VECTOR('',#840,10.);
#241=VECTOR('',#843,10.);
#242=VECTOR('',#846,10.);
#243=VECTOR('',#851,10.);
#244=VECTOR('',#854,3.1);
#245=VECTOR('',#863,3.1);
#246=VECTOR('',#872,3.1);
#247=VECTOR('',#879,10.);
#248=VECTOR('',#880,10.);
#249=VECTOR('',#881,10.);
#250=VECTOR('',#884,10.);
#251=VECTOR('',#885,10.);
#252=VECTOR('',#888,10.);
#253=VECTOR('',#889,10.);
#254=VECTOR('',#892,10.);
#255=VECTOR('',#893,10.);
#256=VECTOR('',#894,10.);
#257=VECTOR('',#897,10.);
#258=VECTOR('',#898,10.);
#259=VECTOR('',#901,10.);
#260=VECTOR('',#902,10.);
#261=VECTOR('',#905,10.);
#262=VECTOR('',#906,10.);
#263=VECTOR('',#907,10.);
#264=VECTOR('',#908,10.);
#265=VECTOR('',#911,10.);
#266=VECTOR('',#912,10.);
#267=VECTOR('',#913,10.);
#268=VECTOR('',#914,10.);
#269=VECTOR('',#917,10.);
#270=VECTOR('',#918,10.);
#271=VECTOR('',#919,10.);
#272=VECTOR('',#922,10.);
#273=VECTOR('',#923,10.);
#274=VECTOR('',#924,10.);
#275=VECTOR('',#927,10.);
#276=VECTOR('',#928,10.);
#277=VECTOR('',#931,10.);
#278=VECTOR('',#936,10.);
#279=VECTOR('',#937,10.);
#280=VECTOR('',#938,10.);
#281=VECTOR('',#939,10.);
#282=VECTOR('',#944,10.);
#283=VECTOR('',#947,10.);
#284=VECTOR('',#950,10.);
#285=VECTOR('',#951,10.);
#286=VECTOR('',#954,10.);
#287=VECTOR('',#955,10.);
#288=VECTOR('',#958,10.);
#289=CIRCLE('',#718,3.1);
#290=CIRCLE('',#719,3.1);
#291=CIRCLE('',#722,1.);
#292=CIRCLE('',#723,1.);
#293=CIRCLE('',#727,1.);
#294=CIRCLE('',#728,1.);
#295=CIRCLE('',#730,3.1);
#296=CIRCLE('',#732,1.);
#297=CIRCLE('',#733,1.);
#298=CIRCLE('',#736,1.);
#299=CIRCLE('',#738,1.);
#300=CIRCLE('',#740,3.1);
#301=CIRCLE('',#743,3.1);
#302=CIRCLE('',#744,3.1);
#303=CIRCLE('',#747,3.1);
#304=CIRCLE('',#748,3.1);
#305=VERTEX_POINT('',#963);
#306=VERTEX_POINT('',#965);
#307=VERTEX_POINT('',#970);
#308=VERTEX_POINT('',#971);
#309=VERTEX_POINT('',#973);
#310=VERTEX_POINT('',#975);
#311=VERTEX_POINT('',#979);
#312=VERTEX_POINT('',#981);
#313=VERTEX_POINT('',#983);
#314=VERTEX_POINT('',#985);
#315=VERTEX_POINT('',#987);
#316=VERTEX_POINT('',#991);
#317=VERTEX_POINT('',#993);
#318=VERTEX_POINT('',#995);
#319=VERTEX_POINT('',#999);
#320=VERTEX_POINT('',#1001);
#321=VERTEX_POINT('',#1005);
#322=VERTEX_POINT('',#1007);
#323=VERTEX_POINT('',#1009);
#324=VERTEX_POINT('',#1011);
#325=VERTEX_POINT('',#1014);
#326=VERTEX_POINT('',#1017);
#327=VERTEX_POINT('',#1018);
#328=VERTEX_POINT('',#1020);
#329=VERTEX_POINT('',#1022);
#330=VERTEX_POINT('',#1026);
#331=VERTEX_POINT('',#1028);
#332=VERTEX_POINT('',#1030);
#333=VERTEX_POINT('',#1032);
#334=VERTEX_POINT('',#1034);
#335=VERTEX_POINT('',#1036);
#336=VERTEX_POINT('',#1038);
#337=VERTEX_POINT('',#1040);
#338=VERTEX_POINT('',#1042);
#339=VERTEX_POINT('',#1044);
#340=VERTEX_POINT('',#1048);
#341=VERTEX_POINT('',#1053);
#342=VERTEX_POINT('',#1057);
#343=VERTEX_POINT('',#1062);
#344=VERTEX_POINT('',#1064);
#345=VERTEX_POINT('',#1069);
#346=VERTEX_POINT('',#1071);
#347=VERTEX_POINT('',#1076);
#348=VERTEX_POINT('',#1078);
#349=VERTEX_POINT('',#1082);
#350=VERTEX_POINT('',#1086);
#351=VERTEX_POINT('',#1090);
#352=VERTEX_POINT('',#1092);
#353=VERTEX_POINT('',#1096);
#354=VERTEX_POINT('',#1100);
#355=VERTEX_POINT('',#1104);
#356=VERTEX_POINT('',#1106);
#357=VERTEX_POINT('',#1108);
#358=VERTEX_POINT('',#1112);
#359=VERTEX_POINT('',#1114);
#360=VERTEX_POINT('',#1116);
#361=VERTEX_POINT('',#1120);
#362=VERTEX_POINT('',#1122);
#363=VERTEX_POINT('',#1126);
#364=VERTEX_POINT('',#1128);
#365=VERTEX_POINT('',#1139);
#366=VERTEX_POINT('',#1141);
#367=VERTEX_POINT('',#1150);
#368=VERTEX_POINT('',#1154);
#369=EDGE_CURVE('',#305,#305,#289,.T.);
#370=EDGE_CURVE('',#305,#306,#129,.T.);
#371=EDGE_CURVE('',#306,#306,#290,.T.);
#372=EDGE_CURVE('',#307,#308,#291,.T.);
#373=EDGE_CURVE('',#308,#309,#130,.T.);
#374=EDGE_CURVE('',#309,#310,#292,.T.);
#375=EDGE_CURVE('',#310,#307,#131,.T.);
#376=EDGE_CURVE('',#307,#311,#132,.T.);
#377=EDGE_CURVE('',#312,#311,#133,.T.);
#378=EDGE_CURVE('',#312,#313,#134,.T.);
#379=EDGE_CURVE('',#313,#314,#135,.T.);
#380=EDGE_CURVE('',#315,#314,#136,.T.);
#381=EDGE_CURVE('',#315,#308,#137,.T.);
#382=EDGE_CURVE('',#316,#310,#138,.T.);
#383=EDGE_CURVE('',#317,#316,#139,.T.);
#384=EDGE_CURVE('',#318,#317,#140,.T.);
#385=EDGE_CURVE('',#318,#311,#141,.T.);
#386=EDGE_CURVE('',#319,#317,#293,.T.);
#387=EDGE_CURVE('',#316,#320,#294,.T.);
#388=EDGE_CURVE('',#320,#319,#142,.T.);
#389=EDGE_CURVE('',#319,#321,#143,.T.);
#390=EDGE_CURVE('',#321,#322,#144,.T.);
#391=EDGE_CURVE('',#322,#323,#145,.T.);
#392=EDGE_CURVE('',#323,#324,#146,.T.);
#393=EDGE_CURVE('',#324,#318,#147,.T.);
#394=EDGE_CURVE('',#325,#325,#295,.T.);
#395=EDGE_CURVE('',#326,#327,#296,.T.);
#396=EDGE_CURVE('',#327,#328,#148,.T.);
#397=EDGE_CURVE('',#328,#329,#297,.T.);
#398=EDGE_CURVE('',#329,#326,#149,.T.);
#399=EDGE_CURVE('',#330,#329,#150,.T.);
#400=EDGE_CURVE('',#331,#330,#151,.T.);
#401=EDGE_CURVE('',#332,#331,#152,.T.);
#402=EDGE_CURVE('',#332,#333,#153,.T.);
#403=EDGE_CURVE('',#333,#334,#154,.T.);
#404=EDGE_CURVE('',#334,#335,#155,.T.);
#405=EDGE_CURVE('',#336,#335,#156,.T.);
#406=EDGE_CURVE('',#336,#337,#157,.T.);
#407=EDGE_CURVE('',#337,#338,#158,.T.);
#408=EDGE_CURVE('',#338,#339,#159,.T.);
#409=EDGE_CURVE('',#326,#339,#160,.T.);
#410=EDGE_CURVE('',#309,#340,#161,.T.);
#411=EDGE_CURVE('',#330,#340,#298,.T.);
#412=EDGE_CURVE('',#328,#320,#162,.T.);
#413=EDGE_CURVE('',#341,#331,#299,.T.);
#414=EDGE_CURVE('',#340,#341,#163,.T.);
#415=EDGE_CURVE('',#325,#342,#164,.T.);
#416=EDGE_CURVE('',#342,#342,#300,.T.);
#417=EDGE_CURVE('',#343,#343,#301,.T.);
#418=EDGE_CURVE('',#343,#344,#165,.T.);
#419=EDGE_CURVE('',#344,#344,#302,.T.);
#420=EDGE_CURVE('',#345,#345,#303,.T.);
#421=EDGE_CURVE('',#345,#346,#166,.T.);
#422=EDGE_CURVE('',#346,#346,#304,.T.);
#423=EDGE_CURVE('',#347,#337,#167,.T.);
#424=EDGE_CURVE('',#348,#347,#168,.T.);
#425=EDGE_CURVE('',#348,#338,#169,.T.);
#426=EDGE_CURVE('',#349,#348,#170,.T.);
#427=EDGE_CURVE('',#339,#349,#171,.T.);
#428=EDGE_CURVE('',#350,#336,#172,.T.);
#429=EDGE_CURVE('',#347,#350,#173,.T.);
#430=EDGE_CURVE('',#351,#333,#174,.T.);
#431=EDGE_CURVE('',#352,#351,#175,.T.);
#432=EDGE_CURVE('',#352,#334,#176,.T.);
#433=EDGE_CURVE('',#353,#352,#177,.T.);
#434=EDGE_CURVE('',#335,#353,#178,.T.);
#435=EDGE_CURVE('',#354,#332,#179,.T.);
#436=EDGE_CURVE('',#351,#354,#180,.T.);
#437=EDGE_CURVE('',#341,#355,#181,.T.);
#438=EDGE_CURVE('',#355,#356,#182,.T.);
#439=EDGE_CURVE('',#356,#357,#183,.T.);
#440=EDGE_CURVE('',#357,#354,#184,.T.);
#441=EDGE_CURVE('',#349,#358,#185,.T.);
#442=EDGE_CURVE('',#358,#359,#186,.T.);
#443=EDGE_CURVE('',#359,#360,#187,.T.);
#444=EDGE_CURVE('',#360,#327,#188,.T.);
#445=EDGE_CURVE('',#360,#361,#189,.T.);
#446=EDGE_CURVE('',#362,#359,#190,.T.);
#447=EDGE_CURVE('',#362,#361,#191,.T.);
#448=EDGE_CURVE('',#361,#363,#192,.T.);
#449=EDGE_CURVE('',#364,#362,#193,.T.);
#450=EDGE_CURVE('',#364,#363,#194,.T.);
#451=EDGE_CURVE('',#363,#321,#195,.T.);
#452=EDGE_CURVE('',#322,#364,#196,.T.);
#453=EDGE_CURVE('',#353,#350,#197,.T.);
#454=EDGE_CURVE('',#312,#324,#198,.T.);
#455=EDGE_CURVE('',#365,#323,#199,.T.);
#456=EDGE_CURVE('',#366,#365,#200,.T.);
#457=EDGE_CURVE('',#366,#313,#201,.T.);
#458=EDGE_CURVE('',#315,#355,#202,.T.);
#459=EDGE_CURVE('',#356,#314,#203,.T.);
#460=EDGE_CURVE('',#367,#357,#204,.T.);
#461=EDGE_CURVE('',#366,#367,#205,.T.);
#462=EDGE_CURVE('',#368,#358,#206,.T.);
#463=EDGE_CURVE('',#368,#365,#207,.T.);
#464=EDGE_CURVE('',#367,#368,#208,.T.);
#465=ORIENTED_EDGE('',*,*,#369,.F.);
#466=ORIENTED_EDGE('',*,*,#370,.T.);
#467=ORIENTED_EDGE('',*,*,#371,.T.);
#468=ORIENTED_EDGE('',*,*,#370,.F.);
#469=ORIENTED_EDGE('',*,*,#371,.F.);
#470=ORIENTED_EDGE('',*,*,#372,.T.);
#471=ORIENTED_EDGE('',*,*,#373,.T.);
#472=ORIENTED_EDGE('',*,*,#374,.T.);
#473=ORIENTED_EDGE('',*,*,#375,.T.);
#474=ORIENTED_EDGE('',*,*,#372,.F.);
#475=ORIENTED_EDGE('',*,*,#376,.T.);
#476=ORIENTED_EDGE('',*,*,#377,.F.);
#477=ORIENTED_EDGE('',*,*,#378,.T.);
#478=ORIENTED_EDGE('',*,*,#379,.T.);
#479=ORIENTED_EDGE('',*,*,#380,.F.);
#480=ORIENTED_EDGE('',*,*,#381,.T.);
#481=ORIENTED_EDGE('',*,*,#369,.T.);
#482=ORIENTED_EDGE('',*,*,#375,.F.);
#483=ORIENTED_EDGE('',*,*,#382,.F.);
#484=ORIENTED_EDGE('',*,*,#383,.F.);
#485=ORIENTED_EDGE('',*,*,#384,.F.);
#486=ORIENTED_EDGE('',*,*,#385,.T.);
#487=ORIENTED_EDGE('',*,*,#376,.F.);
#488=ORIENTED_EDGE('',*,*,#386,.T.);
#489=ORIENTED_EDGE('',*,*,#383,.T.);
#490=ORIENTED_EDGE('',*,*,#387,.T.);
#491=ORIENTED_EDGE('',*,*,#388,.T.);
#492=ORIENTED_EDGE('',*,*,#386,.F.);
#493=ORIENTED_EDGE('',*,*,#389,.T.);
#494=ORIENTED_EDGE('',*,*,#390,.T.);
#495=ORIENTED_EDGE('',*,*,#391,.T.);
#496=ORIENTED_EDGE('',*,*,#392,.T.);
#497=ORIENTED_EDGE('',*,*,#393,.T.);
#498=ORIENTED_EDGE('',*,*,#384,.T.);
#499=ORIENTED_EDGE('',*,*,#394,.T.);
#500=ORIENTED_EDGE('',*,*,#395,.T.);
#501=ORIENTED_EDGE('',*,*,#396,.T.);
#502=ORIENTED_EDGE('',*,*,#397,.T.);
#503=ORIENTED_EDGE('',*,*,#398,.T.);
#504=ORIENTED_EDGE('',*,*,#398,.F.);
#505=ORIENTED_EDGE('',*,*,#399,.F.);
#506=ORIENTED_EDGE('',*,*,#400,.F.);
#507=ORIENTED_EDGE('',*,*,#401,.F.);
#508=ORIENTED_EDGE('',*,*,#402,.T.);
#509=ORIENTED_EDGE('',*,*,#403,.T.);
#510=ORIENTED_EDGE('',*,*,#404,.T.);
#511=ORIENTED_EDGE('',*,*,#405,.F.);
#512=ORIENTED_EDGE('',*,*,#406,.T.);
#513=ORIENTED_EDGE('',*,*,#407,.T.);
#514=ORIENTED_EDGE('',*,*,#408,.T.);
#515=ORIENTED_EDGE('',*,*,#409,.F.);
#516=ORIENTED_EDGE('',*,*,#374,.F.);
#517=ORIENTED_EDGE('',*,*,#410,.T.);
#518=ORIENTED_EDGE('',*,*,#411,.F.);
#519=ORIENTED_EDGE('',*,*,#399,.T.);
#520=ORIENTED_EDGE('',*,*,#397,.F.);
#521=ORIENTED_EDGE('',*,*,#412,.T.);
#522=ORIENTED_EDGE('',*,*,#387,.F.);
#523=ORIENTED_EDGE('',*,*,#382,.T.);
#524=ORIENTED_EDGE('',*,*,#413,.T.);
#525=ORIENTED_EDGE('',*,*,#400,.T.);
#526=ORIENTED_EDGE('',*,*,#411,.T.);
#527=ORIENTED_EDGE('',*,*,#414,.T.);
#528=ORIENTED_EDGE('',*,*,#394,.F.);
#529=ORIENTED_EDGE('',*,*,#415,.T.);
#530=ORIENTED_EDGE('',*,*,#416,.T.);
#531=ORIENTED_EDGE('',*,*,#415,.F.);
#532=ORIENTED_EDGE('',*,*,#416,.F.);
#533=ORIENTED_EDGE('',*,*,#417,.F.);
#534=ORIENTED_EDGE('',*,*,#418,.T.);
#535=ORIENTED_EDGE('',*,*,#419,.T.);
#536=ORIENTED_EDGE('',*,*,#418,.F.);
#537=ORIENTED_EDGE('',*,*,#419,.F.);
#538=ORIENTED_EDGE('',*,*,#420,.F.);
#539=ORIENTED_EDGE('',*,*,#421,.T.);
#540=ORIENTED_EDGE('',*,*,#422,.T.);
#541=ORIENTED_EDGE('',*,*,#421,.F.);
#542=ORIENTED_EDGE('',*,*,#422,.F.);
#543=ORIENTED_EDGE('',*,*,#407,.F.);
#544=ORIENTED_EDGE('',*,*,#423,.F.);
#545=ORIENTED_EDGE('',*,*,#424,.F.);
#546=ORIENTED_EDGE('',*,*,#425,.T.);
#547=ORIENTED_EDGE('',*,*,#408,.F.);
#548=ORIENTED_EDGE('',*,*,#425,.F.);
#549=ORIENTED_EDGE('',*,*,#426,.F.);
#550=ORIENTED_EDGE('',*,*,#427,.F.);
#551=ORIENTED_EDGE('',*,*,#406,.F.);
#552=ORIENTED_EDGE('',*,*,#428,.F.);
#553=ORIENTED_EDGE('',*,*,#429,.F.);
#554=ORIENTED_EDGE('',*,*,#423,.T.);
#555=ORIENTED_EDGE('',*,*,#403,.F.);
#556=ORIENTED_EDGE('',*,*,#430,.F.);
#557=ORIENTED_EDGE('',*,*,#431,.F.);
#558=ORIENTED_EDGE('',*,*,#432,.T.);
#559=ORIENTED_EDGE('',*,*,#404,.F.);
#560=ORIENTED_EDGE('',*,*,#432,.F.);
#561=ORIENTED_EDGE('',*,*,#433,.F.);
#562=ORIENTED_EDGE('',*,*,#434,.F.);
#563=ORIENTED_EDGE('',*,*,#402,.F.);
#564=ORIENTED_EDGE('',*,*,#435,.F.);
#565=ORIENTED_EDGE('',*,*,#436,.F.);
#566=ORIENTED_EDGE('',*,*,#430,.T.);
#567=ORIENTED_EDGE('',*,*,#413,.F.);
#568=ORIENTED_EDGE('',*,*,#437,.T.);
#569=ORIENTED_EDGE('',*,*,#438,.T.);
#570=ORIENTED_EDGE('',*,*,#439,.T.);
#571=ORIENTED_EDGE('',*,*,#440,.T.);
#572=ORIENTED_EDGE('',*,*,#435,.T.);
#573=ORIENTED_EDGE('',*,*,#401,.T.);
#574=ORIENTED_EDGE('',*,*,#420,.T.);
#575=ORIENTED_EDGE('',*,*,#395,.F.);
#576=ORIENTED_EDGE('',*,*,#409,.T.);
#577=ORIENTED_EDGE('',*,*,#427,.T.);
#578=ORIENTED_EDGE('',*,*,#441,.T.);
#579=ORIENTED_EDGE('',*,*,#442,.T.);
#580=ORIENTED_EDGE('',*,*,#443,.T.);
#581=ORIENTED_EDGE('',*,*,#444,.T.);
#582=ORIENTED_EDGE('',*,*,#417,.T.);
#583=ORIENTED_EDGE('',*,*,#445,.F.);
#584=ORIENTED_EDGE('',*,*,#443,.F.);
#585=ORIENTED_EDGE('',*,*,#446,.F.);
#586=ORIENTED_EDGE('',*,*,#447,.T.);
#587=ORIENTED_EDGE('',*,*,#448,.F.);
#588=ORIENTED_EDGE('',*,*,#447,.F.);
#589=ORIENTED_EDGE('',*,*,#449,.F.);
#590=ORIENTED_EDGE('',*,*,#450,.T.);
#591=ORIENTED_EDGE('',*,*,#451,.F.);
#592=ORIENTED_EDGE('',*,*,#450,.F.);
#593=ORIENTED_EDGE('',*,*,#452,.F.);
#594=ORIENTED_EDGE('',*,*,#390,.F.);
#595=ORIENTED_EDGE('',*,*,#428,.T.);
#596=ORIENTED_EDGE('',*,*,#405,.T.);
#597=ORIENTED_EDGE('',*,*,#434,.T.);
#598=ORIENTED_EDGE('',*,*,#453,.T.);
#599=ORIENTED_EDGE('',*,*,#388,.F.);
#600=ORIENTED_EDGE('',*,*,#412,.F.);
#601=ORIENTED_EDGE('',*,*,#396,.F.);
#602=ORIENTED_EDGE('',*,*,#444,.F.);
#603=ORIENTED_EDGE('',*,*,#445,.T.);
#604=ORIENTED_EDGE('',*,*,#448,.T.);
#605=ORIENTED_EDGE('',*,*,#451,.T.);
#606=ORIENTED_EDGE('',*,*,#389,.F.);
#607=ORIENTED_EDGE('',*,*,#454,.T.);
#608=ORIENTED_EDGE('',*,*,#392,.F.);
#609=ORIENTED_EDGE('',*,*,#455,.F.);
#610=ORIENTED_EDGE('',*,*,#456,.F.);
#611=ORIENTED_EDGE('',*,*,#457,.T.);
#612=ORIENTED_EDGE('',*,*,#378,.F.);
#613=ORIENTED_EDGE('',*,*,#377,.T.);
#614=ORIENTED_EDGE('',*,*,#385,.F.);
#615=ORIENTED_EDGE('',*,*,#393,.F.);
#616=ORIENTED_EDGE('',*,*,#454,.F.);
#617=ORIENTED_EDGE('',*,*,#373,.F.);
#618=ORIENTED_EDGE('',*,*,#381,.F.);
#619=ORIENTED_EDGE('',*,*,#458,.T.);
#620=ORIENTED_EDGE('',*,*,#437,.F.);
#621=ORIENTED_EDGE('',*,*,#414,.F.);
#622=ORIENTED_EDGE('',*,*,#410,.F.);
#623=ORIENTED_EDGE('',*,*,#380,.T.);
#624=ORIENTED_EDGE('',*,*,#459,.F.);
#625=ORIENTED_EDGE('',*,*,#438,.F.);
#626=ORIENTED_EDGE('',*,*,#458,.F.);
#627=ORIENTED_EDGE('',*,*,#460,.T.);
#628=ORIENTED_EDGE('',*,*,#439,.F.);
#629=ORIENTED_EDGE('',*,*,#459,.T.);
#630=ORIENTED_EDGE('',*,*,#379,.F.);
#631=ORIENTED_EDGE('',*,*,#457,.F.);
#632=ORIENTED_EDGE('',*,*,#461,.T.);
#633=ORIENTED_EDGE('',*,*,#446,.T.);
#634=ORIENTED_EDGE('',*,*,#442,.F.);
#635=ORIENTED_EDGE('',*,*,#462,.F.);
#636=ORIENTED_EDGE('',*,*,#463,.T.);
#637=ORIENTED_EDGE('',*,*,#455,.T.);
#638=ORIENTED_EDGE('',*,*,#391,.F.);
#639=ORIENTED_EDGE('',*,*,#452,.T.);
#640=ORIENTED_EDGE('',*,*,#449,.T.);
#641=ORIENTED_EDGE('',*,*,#429,.T.);
#642=ORIENTED_EDGE('',*,*,#453,.F.);
#643=ORIENTED_EDGE('',*,*,#433,.T.);
#644=ORIENTED_EDGE('',*,*,#431,.T.);
#645=ORIENTED_EDGE('',*,*,#436,.T.);
#646=ORIENTED_EDGE('',*,*,#440,.F.);
#647=ORIENTED_EDGE('',*,*,#460,.F.);
#648=ORIENTED_EDGE('',*,*,#464,.T.);
#649=ORIENTED_EDGE('',*,*,#462,.T.);
#650=ORIENTED_EDGE('',*,*,#441,.F.);
#651=ORIENTED_EDGE('',*,*,#426,.T.);
#652=ORIENTED_EDGE('',*,*,#424,.T.);
#653=ORIENTED_EDGE('',*,*,#456,.T.);
#654=ORIENTED_EDGE('',*,*,#463,.F.);
#655=ORIENTED_EDGE('',*,*,#464,.F.);
#656=ORIENTED_EDGE('',*,*,#461,.F.);
#657=CYLINDRICAL_SURFACE('',#717,3.1);
#658=CYLINDRICAL_SURFACE('',#721,1.);
#659=CYLINDRICAL_SURFACE('',#726,1.);
#660=CYLINDRICAL_SURFACE('',#731,1.);
#661=CYLINDRICAL_SURFACE('',#737,1.);
#662=CYLINDRICAL_SURFACE('',#739,3.1);
#663=CYLINDRICAL_SURFACE('',#742,3.1);
#664=CYLINDRICAL_SURFACE('',#746,3.1);
#665=ADVANCED_FACE('',(#49),#657,.F.);
#666=ADVANCED_FACE('',(#50),#19,.T.);
#667=ADVANCED_FACE('',(#51),#658,.T.);
#668=ADVANCED_FACE('',(#52,#15),#20,.T.);
#669=ADVANCED_FACE('',(#53),#21,.T.);
#670=ADVANCED_FACE('',(#54),#659,.T.);
#671=ADVANCED_FACE('',(#55,#16),#22,.T.);
#672=ADVANCED_FACE('',(#56),#660,.T.);
#673=ADVANCED_FACE('',(#57),#23,.T.);
#674=ADVANCED_FACE('',(#58),#24,.F.);
#675=ADVANCED_FACE('',(#59),#661,.T.);
#676=ADVANCED_FACE('',(#60),#662,.F.);
#677=ADVANCED_FACE('',(#61),#25,.T.);
#678=ADVANCED_FACE('',(#62),#663,.F.);
#679=ADVANCED_FACE('',(#63),#26,.T.);
#680=ADVANCED_FACE('',(#64),#664,.F.);
#681=ADVANCED_FACE('',(#65),#27,.T.);
#682=ADVANCED_FACE('',(#66),#28,.F.);
#683=ADVANCED_FACE('',(#67),#29,.F.);
#684=ADVANCED_FACE('',(#68),#30,.F.);
#685=ADVANCED_FACE('',(#69),#31,.F.);
#686=ADVANCED_FACE('',(#70),#32,.F.);
#687=ADVANCED_FACE('',(#71),#33,.F.);
#688=ADVANCED_FACE('',(#72,#17),#34,.T.);
#689=ADVANCED_FACE('',(#73,#18),#35,.T.);
#690=ADVANCED_FACE('',(#74),#36,.F.);
#691=ADVANCED_FACE('',(#75),#37,.F.);
#692=ADVANCED_FACE('',(#76),#38,.F.);
#693=ADVANCED_FACE('',(#77),#39,.T.);
#694=ADVANCED_FACE('',(#78),#40,.T.);
#695=ADVANCED_FACE('',(#79),#41,.T.);
#696=ADVANCED_FACE('',(#80),#42,.F.);
#697=ADVANCED_FACE('',(#81),#43,.T.);
#698=ADVANCED_FACE('',(#82),#44,.F.);
#699=ADVANCED_FACE('',(#83),#45,.T.);
#700=ADVANCED_FACE('',(#84),#46,.T.);
#701=ADVANCED_FACE('',(#85),#47,.T.);
#702=ADVANCED_FACE('',(#86),#48,.T.);
#703=CLOSED_SHELL('',(#665,#666,#667,#668,#669,#670,#671,#672,#673,#674,
#675,#676,#677,#678,#679,#680,#681,#682,#683,#684,#685,#686,#687,#688,#689,
#690,#691,#692,#693,#694,#695,#696,#697,#698,#699,#700,#701,#702));
#704=DERIVED_UNIT_ELEMENT(#706,1.);
#705=DERIVED_UNIT_ELEMENT(#1165,-3.);
#706=(
MASS_UNIT()
NAMED_UNIT(*)
SI_UNIT(.KILO.,.GRAM.)
);
#707=DERIVED_UNIT((#704,#705));
#708=MEASURE_REPRESENTATION_ITEM('density measure',
POSITIVE_RATIO_MEASURE(7850.),#707);
#709=PROPERTY_DEFINITION_REPRESENTATION(#714,#711);
#710=PROPERTY_DEFINITION_REPRESENTATION(#715,#712);
#711=REPRESENTATION('material name',(#713),#1162);
#712=REPRESENTATION('density',(#708),#1162);
#713=DESCRIPTIVE_REPRESENTATION_ITEM('Steel','Steel');
#714=PROPERTY_DEFINITION('material property','material name',#1172);
#715=PROPERTY_DEFINITION('material property','density of part',#1172);
#716=AXIS2_PLACEMENT_3D('',#961,#771,#772);
#717=AXIS2_PLACEMENT_3D('',#962,#773,#774);
#718=AXIS2_PLACEMENT_3D('',#964,#775,#776);
#719=AXIS2_PLACEMENT_3D('',#967,#778,#779);
#720=AXIS2_PLACEMENT_3D('',#968,#780,#781);
#721=AXIS2_PLACEMENT_3D('',#969,#782,#783);
#722=AXIS2_PLACEMENT_3D('',#972,#784,#785);
#723=AXIS2_PLACEMENT_3D('',#976,#787,#788);
#724=AXIS2_PLACEMENT_3D('',#978,#790,#791);
#725=AXIS2_PLACEMENT_3D('',#990,#798,#799);
#726=AXIS2_PLACEMENT_3D('',#998,#804,#805);
#727=AXIS2_PLACEMENT_3D('',#1000,#806,#807);
#728=AXIS2_PLACEMENT_3D('',#1002,#808,#809);
#729=AXIS2_PLACEMENT_3D('',#1004,#811,#812);
#730=AXIS2_PLACEMENT_3D('',#1015,#818,#819);
#731=AXIS2_PLACEMENT_3D('',#1016,#820,#821);
#732=AXIS2_PLACEMENT_3D('',#1019,#822,#823);
#733=AXIS2_PLACEMENT_3D('',#1023,#825,#826);
#734=AXIS2_PLACEMENT_3D('',#1025,#828,#829);
#735=AXIS2_PLACEMENT_3D('',#1047,#841,#842);
#736=AXIS2_PLACEMENT_3D('',#1050,#844,#845);
#737=AXIS2_PLACEMENT_3D('',#1052,#847,#848);
#738=AXIS2_PLACEMENT_3D('',#1054,#849,#850);
#739=AXIS2_PLACEMENT_3D('',#1056,#852,#853);
#740=AXIS2_PLACEMENT_3D('',#1059,#855,#856);
#741=AXIS2_PLACEMENT_3D('',#1060,#857,#858);
#742=AXIS2_PLACEMENT_3D('',#1061,#859,#860);
#743=AXIS2_PLACEMENT_3D('',#1063,#861,#862);
#744=AXIS2_PLACEMENT_3D('',#1066,#864,#865);
#745=AXIS2_PLACEMENT_3D('',#1067,#866,#867);
#746=AXIS2_PLACEMENT_3D('',#1068,#868,#869);
#747=AXIS2_PLACEMENT_3D('',#1070,#870,#871);
#748=AXIS2_PLACEMENT_3D('',#1073,#873,#874);
#749=AXIS2_PLACEMENT_3D('',#1074,#875,#876);
#750=AXIS2_PLACEMENT_3D('',#1075,#877,#878);
#751=AXIS2_PLACEMENT_3D('',#1081,#882,#883);
#752=AXIS2_PLACEMENT_3D('',#1085,#886,#887);
#753=AXIS2_PLACEMENT_3D('',#1089,#890,#891);
#754=AXIS2_PLACEMENT_3D('',#1095,#895,#896);
#755=AXIS2_PLACEMENT_3D('',#1099,#899,#900);
#756=AXIS2_PLACEMENT_3D('',#1103,#903,#904);
#757=AXIS2_PLACEMENT_3D('',#1111,#909,#910);
#758=AXIS2_PLACEMENT_3D('',#1119,#915,#916);
#759=AXIS2_PLACEMENT_3D('',#1125,#920,#921);
#760=AXIS2_PLACEMENT_3D('',#1131,#925,#926);
#761=AXIS2_PLACEMENT_3D('',#1134,#929,#930);
#762=AXIS2_PLACEMENT_3D('',#1136,#932,#933);
#763=AXIS2_PLACEMENT_3D('',#1137,#934,#935);
#764=AXIS2_PLACEMENT_3D('',#1144,#940,#941);
#765=AXIS2_PLACEMENT_3D('',#1145,#942,#943);
#766=AXIS2_PLACEMENT_3D('',#1147,#945,#946);
#767=AXIS2_PLACEMENT_3D('',#1149,#948,#949);
#768=AXIS2_PLACEMENT_3D('',#1153,#952,#953);
#769=AXIS2_PLACEMENT_3D('',#1157,#956,#957);
#770=AXIS2_PLACEMENT_3D('',#1159,#959,#960);
#771=DIRECTION('axis',(0.,0.,1.));
#772=DIRECTION('refdir',(1.,0.,0.));
#773=DIRECTION('center_axis',(0.,0.,-1.));
#774=DIRECTION('ref_axis',(-1.,0.,0.));
#775=DIRECTION('center_axis',(0.,0.,-1.));
#776=DIRECTION('ref_axis',(-1.,0.,0.));
#777=DIRECTION('',(0.,0.,-1.));
#778=DIRECTION('center_axis',(0.,0.,-1.));
#779=DIRECTION('ref_axis',(-1.,0.,0.));
#780=DIRECTION('center_axis',(0.,0.,1.));
#781=DIRECTION('ref_axis',(-1.,0.,0.));
#782=DIRECTION('center_axis',(0.,0.,1.));
#783=DIRECTION('ref_axis',(0.707106781186548,-0.707106781186548,0.));
#784=DIRECTION('center_axis',(0.,0.,-1.));
#785=DIRECTION('ref_axis',(0.707106781186548,-0.707106781186548,0.));
#786=DIRECTION('',(0.,0.,-1.));
#787=DIRECTION('center_axis',(0.,0.,1.));
#788=DIRECTION('ref_axis',(0.707106781186548,-0.707106781186548,0.));
#789=DIRECTION('',(0.,0.,1.));
#790=DIRECTION('center_axis',(0.,0.,1.));
#791=DIRECTION('ref_axis',(1.,0.,0.));
#792=DIRECTION('',(0.,1.,0.));
#793=DIRECTION('',(1.,0.,0.));
#794=DIRECTION('',(0.,-1.,0.));
#795=DIRECTION('',(-1.,0.,0.));
#796=DIRECTION('',(0.,1.,0.));
#797=DIRECTION('',(1.,0.,0.));
#798=DIRECTION('center_axis',(1.,0.,0.));
#799=DIRECTION('ref_axis',(0.,1.,0.));
#800=DIRECTION('',(0.,-1.,0.));
#801=DIRECTION('',(0.,0.,-1.));
#802=DIRECTION('',(0.,1.,0.));
#803=DIRECTION('',(0.,0.,-1.));
#804=DIRECTION('center_axis',(0.,0.,1.));
#805=DIRECTION('ref_axis',(0.707106781186546,0.707106781186549,0.));
#806=DIRECTION('center_axis',(0.,0.,-1.));
#807=DIRECTION('ref_axis',(0.707106781186546,0.707106781186549,0.));
#808=DIRECTION('center_axis',(0.,0.,1.));
#809=DIRECTION('ref_axis',(0.707106781186546,0.707106781186549,0.));
#810=DIRECTION('',(0.,0.,1.));
#811=DIRECTION('center_axis',(0.,0.,1.));
#812=DIRECTION('ref_axis',(1.,0.,0.));
#813=DIRECTION('',(-1.,0.,0.));
#814=DIRECTION('',(0.,-1.,0.));
#815=DIRECTION('',(1.,0.,0.));
#816=DIRECTION('',(0.,-1.,0.));
#817=DIRECTION('',(1.,0.,0.));
#818=DIRECTION('center_axis',(0.,0.,-1.));
#819=DIRECTION('ref_axis',(-1.,0.,0.));
#820=DIRECTION('center_axis',(0.,0.,1.));
#821=DIRECTION('ref_axis',(-0.707106781186548,0.707106781186548,0.));
#822=DIRECTION('center_axis',(0.,0.,-1.));
#823=DIRECTION('ref_axis',(-0.707106781186548,0.707106781186548,0.));
#824=DIRECTION('',(0.,0.,-1.));
#825=DIRECTION('center_axis',(0.,0.,1.));
#826=DIRECTION('ref_axis',(-0.707106781186548,0.707106781186548,0.));
#827=DIRECTION('',(0.,0.,1.));
#828=DIRECTION('center_axis',(-1.,0.,0.));
#829=DIRECTION('ref_axis',(0.,-1.,0.));
#830=DIRECTION('',(0.,1.,0.));
#831=DIRECTION('',(0.,0.,-1.));
#832=DIRECTION('',(0.,-1.,0.));
#833=DIRECTION('',(0.,0.,-1.));
#834=DIRECTION('',(0.,1.,0.));
#835=DIRECTION('',(0.,0.,1.));
#836=DIRECTION('',(0.,-1.,0.));
#837=DIRECTION('',(0.,-5.92513945168554E-16,-1.));
#838=DIRECTION('',(0.,1.,0.));
#839=DIRECTION('',(0.,0.,1.));
#840=DIRECTION('',(0.,-1.,0.));
#841=DIRECTION('center_axis',(0.,0.,1.));
#842=DIRECTION('ref_axis',(1.,0.,0.));
#843=DIRECTION('',(-1.,0.,0.));
#844=DIRECTION('center_axis',(0.,0.,1.));
#845=DIRECTION('ref_axis',(-0.707106781186549,-0.707106781186546,0.));
#846=DIRECTION('',(1.,0.,0.));
#847=DIRECTION('center_axis',(0.,0.,1.));
#848=DIRECTION('ref_axis',(-0.707106781186549,-0.707106781186546,0.));
#849=DIRECTION('center_axis',(0.,0.,-1.));
#850=DIRECTION('ref_axis',(-0.707106781186549,-0.707106781186546,0.));
#851=DIRECTION('',(0.,0.,1.));
#852=DIRECTION('center_axis',(0.,0.,-1.));
#853=DIRECTION('ref_axis',(-1.,0.,0.));
#854=DIRECTION('',(0.,0.,-1.));
#855=DIRECTION('center_axis',(0.,0.,-1.));
#856=DIRECTION('ref_axis',(-1.,0.,0.));
#857=DIRECTION('center_axis',(0.,0.,1.));
#858=DIRECTION('ref_axis',(-1.,0.,0.));
#859=DIRECTION('center_axis',(0.,0.,-1.));
#860=DIRECTION('ref_axis',(-1.,0.,0.));
#861=DIRECTION('center_axis',(0.,0.,-1.));
#862=DIRECTION('ref_axis',(-1.,0.,0.));
#863=DIRECTION('',(0.,0.,-1.));
#864=DIRECTION('center_axis',(0.,0.,-1.));
#865=DIRECTION('ref_axis',(-1.,0.,0.));
#866=DIRECTION('center_axis',(0.,0.,1.));
#867=DIRECTION('ref_axis',(-1.,0.,0.));
#868=DIRECTION('center_axis',(0.,0.,-1.));
#869=DIRECTION('ref_axis',(-1.,0.,0.));
#870=DIRECTION('center_axis',(0.,0.,-1.));
#871=DIRECTION('ref_axis',(-1.,0.,0.));
#872=DIRECTION('',(0.,0.,-1.));
#873=DIRECTION('center_axis',(0.,0.,-1.));
#874=DIRECTION('ref_axis',(-1.,0.,0.));
#875=DIRECTION('center_axis',(0.,0.,1.));
#876=DIRECTION('ref_axis',(-1.,0.,0.));
#877=DIRECTION('center_axis',(0.,0.,-1.));
#878=DIRECTION('ref_axis',(0.,-1.,0.));
#879=DIRECTION('',(-1.,0.,0.));
#880=DIRECTION('',(0.,-1.,0.));
#881=DIRECTION('',(-1.,0.,0.));
#882=DIRECTION('center_axis',(0.,1.,0.));
#883=DIRECTION('ref_axis',(0.,0.,-1.));
#884=DIRECTION('',(0.,0.,-1.));
#885=DIRECTION('',(1.,0.,0.));
#886=DIRECTION('center_axis',(0.,-1.,5.92513945168554E-16));
#887=DIRECTION('ref_axis',(0.,5.92513945168554E-16,1.));
#888=DIRECTION('',(-1.,0.,0.));
#889=DIRECTION('',(0.,5.92513945168554E-16,1.));
#890=DIRECTION('center_axis',(0.,0.,-1.));
#891=DIRECTION('ref_axis',(0.,-1.,0.));
#892=DIRECTION('',(-1.,0.,0.));
#893=DIRECTION('',(0.,-1.,0.));
#894=DIRECTION('',(-1.,0.,0.));
#895=DIRECTION('center_axis',(0.,1.,0.));
#896=DIRECTION('ref_axis',(0.,0.,-1.));
#897=DIRECTION('',(0.,0.,-1.));
#898=DIRECTION('',(1.,0.,0.));
#899=DIRECTION('center_axis',(0.,-1.,0.));
#900=DIRECTION('ref_axis',(0.,0.,1.));
#901=DIRECTION('',(-1.,0.,0.));
#902=DIRECTION('',(0.,0.,1.));
#903=DIRECTION('center_axis',(0.,0.,1.));
#904=DIRECTION('ref_axis',(1.,0.,0.));
#905=DIRECTION('',(1.,0.,0.));
#906=DIRECTION('',(0.,1.,0.));
#907=DIRECTION('',(-1.,0.,0.));
#908=DIRECTION('',(0.,1.,0.));
#909=DIRECTION('center_axis',(0.,0.,1.));
#910=DIRECTION('ref_axis',(1.,0.,0.));
#911=DIRECTION('',(0.,1.,0.));
#912=DIRECTION('',(1.,0.,0.));
#913=DIRECTION('',(0.,1.,0.));
#914=DIRECTION('',(-1.,0.,0.));
#915=DIRECTION('center_axis',(-1.,0.,0.));
#916=DIRECTION('ref_axis',(0.,0.,1.));
#917=DIRECTION('',(0.,0.,-1.));
#918=DIRECTION('',(0.,0.,1.));
#919=DIRECTION('',(0.,1.,0.));
#920=DIRECTION('center_axis',(0.,0.,-1.));
#921=DIRECTION('ref_axis',(-1.,0.,0.));
#922=DIRECTION('',(1.,0.,0.));
#923=DIRECTION('',(-1.,0.,0.));
#924=DIRECTION('',(0.,1.,0.));
#925=DIRECTION('center_axis',(1.,0.,0.));
#926=DIRECTION('ref_axis',(0.,0.,-1.));
#927=DIRECTION('',(0.,0.,1.));
#928=DIRECTION('',(0.,0.,-1.));
#929=DIRECTION('center_axis',(0.,0.,1.));
#930=DIRECTION('ref_axis',(1.,0.,0.));
#931=DIRECTION('',(0.,1.,0.));
#932=DIRECTION('center_axis',(0.,1.,0.));
#933=DIRECTION('ref_axis',(-1.,0.,0.));
#934=DIRECTION('center_axis',(-1.,0.,0.));
#935=DIRECTION('ref_axis',(0.,-1.,0.));
#936=DIRECTION('',(0.,0.,1.));
#937=DIRECTION('',(0.,0.,1.));
#938=DIRECTION('',(0.,1.,0.));
#939=DIRECTION('',(0.,0.,1.));
#940=DIRECTION('center_axis',(0.,1.,0.));
#941=DIRECTION('ref_axis',(-1.,0.,0.));
#942=DIRECTION('center_axis',(0.,-1.,0.));
#943=DIRECTION('ref_axis',(1.,0.,0.));
#944=DIRECTION('',(0.,0.,1.));
#945=DIRECTION('center_axis',(-1.,0.,0.));
#946=DIRECTION('ref_axis',(0.,-1.,0.));
#947=DIRECTION('',(0.,0.,-1.));
#948=DIRECTION('center_axis',(0.,1.,0.));
#949=DIRECTION('ref_axis',(-1.,0.,0.));
#950=DIRECTION('',(0.,0.,1.));
#951=DIRECTION('',(-1.,0.,0.));
#952=DIRECTION('center_axis',(0.,-1.,0.));
#953=DIRECTION('ref_axis',(1.,0.,0.));
#954=DIRECTION('',(0.,0.,1.));
#955=DIRECTION('',(1.,0.,0.));
#956=DIRECTION('center_axis',(1.,0.,0.));
#957=DIRECTION('ref_axis',(0.,1.,0.));
#958=DIRECTION('',(0.,1.,0.));
#959=DIRECTION('center_axis',(0.,0.,1.));
#960=DIRECTION('ref_axis',(1.,0.,0.));
#961=CARTESIAN_POINT('',(0.,0.,0.));
#962=CARTESIAN_POINT('Origin',(75.0000011175871,-69.0000010281801,8.));
#963=CARTESIAN_POINT('',(78.1000011175871,-69.0000010281801,8.));
#964=CARTESIAN_POINT('Origin',(75.0000011175871,-69.0000010281801,8.));
#965=CARTESIAN_POINT('',(78.1000011175871,-69.0000010281801,6.3));
#966=CARTESIAN_POINT('',(78.1000011175871,-69.0000010281801,8.));
#967=CARTESIAN_POINT('Origin',(75.0000011175871,-69.0000010281801,6.3));
#968=CARTESIAN_POINT('Origin',(75.0000011175871,-69.0000010281801,6.3));
#969=CARTESIAN_POINT('Origin',(78.,-72.,0.));
#970=CARTESIAN_POINT('',(79.,-72.,8.));
#971=CARTESIAN_POINT('',(78.,-73.,8.));
#972=CARTESIAN_POINT('Origin',(78.,-72.,8.));
#973=CARTESIAN_POINT('',(78.,-73.,0.));
#974=CARTESIAN_POINT('',(78.,-73.,0.));
#975=CARTESIAN_POINT('',(79.,-72.,0.));
#976=CARTESIAN_POINT('Origin',(78.,-72.,0.));
#977=CARTESIAN_POINT('',(79.,-72.,0.));
#978=CARTESIAN_POINT('Origin',(36.,-33.,8.));
#979=CARTESIAN_POINT('',(79.,-26.4999994076788,8.));
#980=CARTESIAN_POINT('',(79.,1.,8.));
#981=CARTESIAN_POINT('',(72.,-26.4999994076788,8.));
#982=CARTESIAN_POINT('',(54.5,-26.4999994076788,8.));
#983=CARTESIAN_POINT('',(72.,-66.,8.));
#984=CARTESIAN_POINT('',(72.,0.,8.));
#985=CARTESIAN_POINT('',(61.2999986298382,-66.,8.));
#986=CARTESIAN_POINT('',(72.,-66.,8.));
#987=CARTESIAN_POINT('',(61.2999986298382,-73.,8.));
#988=CARTESIAN_POINT('',(61.2999986298382,-29.7499997038394,8.));
#989=CARTESIAN_POINT('',(73.,-73.,8.));
#990=CARTESIAN_POINT('Origin',(79.,-67.,0.));
#991=CARTESIAN_POINT('',(79.,6.,0.));
#992=CARTESIAN_POINT('',(79.,1.,0.));
#993=CARTESIAN_POINT('',(79.,6.,14.));
#994=CARTESIAN_POINT('',(79.,6.,0.));
#995=CARTESIAN_POINT('',(79.,-26.4999994076788,14.));
#996=CARTESIAN_POINT('',(79.,1.,14.));
#997=CARTESIAN_POINT('',(79.,-26.4999994076788,0.));
#998=CARTESIAN_POINT('Origin',(78.,6.,0.));
#999=CARTESIAN_POINT('',(78.,7.,14.));
#1000=CARTESIAN_POINT('Origin',(78.,6.,14.));
#1001=CARTESIAN_POINT('',(78.,7.,0.));
#1002=CARTESIAN_POINT('Origin',(78.,6.,0.));
#1003=CARTESIAN_POINT('',(78.,7.,0.));
#1004=CARTESIAN_POINT('Origin',(36.,-33.,14.));
#1005=CARTESIAN_POINT('',(56.4999987371266,7.,13.9999998100102));
#1006=CARTESIAN_POINT('',(-1.,7.,14.));
#1007=CARTESIAN_POINT('',(56.4999987371266,0.,13.9999998100102));
#1008=CARTESIAN_POINT('',(56.4999987371266,-16.5,14.));
#1009=CARTESIAN_POINT('',(72.,0.,14.));
#1010=CARTESIAN_POINT('',(0.,0.,14.));
#1011=CARTESIAN_POINT('',(72.,-26.4999994076788,14.));
#1012=CARTESIAN_POINT('',(72.,0.,14.));
#1013=CARTESIAN_POINT('',(54.5,-26.4999994076788,14.));
#1014=CARTESIAN_POINT('',(78.1000011175871,3.00000004470348,14.));
#1015=CARTESIAN_POINT('Origin',(75.0000011175871,3.00000004470348,14.));
#1016=CARTESIAN_POINT('Origin',(-6.,6.,0.));
#1017=CARTESIAN_POINT('',(-7.,6.,14.));
#1018=CARTESIAN_POINT('',(-6.,7.,14.));
#1019=CARTESIAN_POINT('Origin',(-6.,6.,14.));
#1020=CARTESIAN_POINT('',(-6.,7.,0.));
#1021=CARTESIAN_POINT('',(-6.,7.,0.));
#1022=CARTESIAN_POINT('',(-7.,6.,0.));
#1023=CARTESIAN_POINT('Origin',(-6.,6.,0.));
#1024=CARTESIAN_POINT('',(-7.,6.,0.));
#1025=CARTESIAN_POINT('Origin',(-7.,0.999999999999996,0.));
#1026=CARTESIAN_POINT('',(-7.,-72.,0.));
#1027=CARTESIAN_POINT('',(-7.,-67.,0.));
#1028=CARTESIAN_POINT('',(-7.,-72.,14.));
#1029=CARTESIAN_POINT('',(-7.,-72.,0.));
#1030=CARTESIAN_POINT('',(-7.,-55.0000008195639,14.0000002086163));
#1031=CARTESIAN_POINT('',(-7.,-67.,14.));
#1032=CARTESIAN_POINT('',(-7.,-55.0000008195639,7.90000014156103));
#1033=CARTESIAN_POINT('',(-7.,-55.0000008195639,3.95000007078052));
#1034=CARTESIAN_POINT('',(-7.,-46.0000006854534,7.90000014156103));
#1035=CARTESIAN_POINT('',(-7.,-22.5000003427267,7.90000014156103));
#1036=CARTESIAN_POINT('',(-7.,-46.0000006854534,14.0000002086163));
#1037=CARTESIAN_POINT('',(-7.,-46.0000006854534,7.00000010430813));
#1038=CARTESIAN_POINT('',(-7.,-35.9917938525928,14.0000001341105));
#1039=CARTESIAN_POINT('',(-7.,-67.,14.));
#1040=CARTESIAN_POINT('',(-7.,-35.9917938525928,6.505));
#1041=CARTESIAN_POINT('',(-7.,-35.9917938525928,3.25250000000001));
#1042=CARTESIAN_POINT('',(-7.,-16.5000002458692,6.505));
#1043=CARTESIAN_POINT('',(-7.,-7.75000012293458,6.505));
#1044=CARTESIAN_POINT('',(-7.,-16.5000002458692,14.));
#1045=CARTESIAN_POINT('',(-7.,-16.5000002458692,7.00000006705523));
#1046=CARTESIAN_POINT('',(-7.,-67.,14.));
#1047=CARTESIAN_POINT('Origin',(36.,-33.,0.));
#1048=CARTESIAN_POINT('',(-6.,-73.,0.));
#1049=CARTESIAN_POINT('',(73.,-73.,0.));
#1050=CARTESIAN_POINT('Origin',(-6.,-72.,0.));
#1051=CARTESIAN_POINT('',(-1.,7.,0.));
#1052=CARTESIAN_POINT('Origin',(-6.,-72.,0.));
#1053=CARTESIAN_POINT('',(-6.,-73.,14.));
#1054=CARTESIAN_POINT('Origin',(-6.,-72.,14.));
#1055=CARTESIAN_POINT('',(-6.,-73.,0.));
#1056=CARTESIAN_POINT('Origin',(75.0000011175871,3.00000004470348,14.));
#1057=CARTESIAN_POINT('',(78.1000011175871,3.00000004470348,12.3));
#1058=CARTESIAN_POINT('',(78.1000011175871,3.00000004470348,14.));
#1059=CARTESIAN_POINT('Origin',(75.0000011175871,3.00000004470348,12.3));
#1060=CARTESIAN_POINT('Origin',(75.0000011175871,3.00000004470348,12.3));
#1061=CARTESIAN_POINT('Origin',(-2.99999999999999,3.,14.));
#1062=CARTESIAN_POINT('',(0.100000000000007,3.,14.));
#1063=CARTESIAN_POINT('Origin',(-2.99999999999999,3.,14.));
#1064=CARTESIAN_POINT('',(0.100000000000007,3.,12.3));
#1065=CARTESIAN_POINT('',(0.100000000000007,3.,14.));
#1066=CARTESIAN_POINT('Origin',(-2.99999999999999,3.,12.3));
#1067=CARTESIAN_POINT('Origin',(-2.99999999999999,3.,12.3));
#1068=CARTESIAN_POINT('Origin',(-3.,-69.,14.));
#1069=CARTESIAN_POINT('',(0.100000000000005,-69.,14.));
#1070=CARTESIAN_POINT('Origin',(-3.,-69.,14.));
#1071=CARTESIAN_POINT('',(0.100000000000005,-69.,12.3));
#1072=CARTESIAN_POINT('',(0.100000000000005,-69.,14.));
#1073=CARTESIAN_POINT('Origin',(-3.,-69.,12.3));
#1074=CARTESIAN_POINT('Origin',(-3.,-69.,12.3));
#1075=CARTESIAN_POINT('Origin',(0.,-16.5000002458692,6.505));
#1076=CARTESIAN_POINT('',(0.,-35.9917938525928,6.505));
#1077=CARTESIAN_POINT('',(0.,-35.9917938525928,6.505));
#1078=CARTESIAN_POINT('',(0.,-16.5000002458692,6.505));
#1079=CARTESIAN_POINT('',(0.,-41.2500001229346,6.505));
#1080=CARTESIAN_POINT('',(0.,-16.5000002458692,6.505));
#1081=CARTESIAN_POINT('Origin',(0.,-16.5000002458692,14.0000001341105));
#1082=CARTESIAN_POINT('',(0.,-16.5000002458692,14.0000001341105));
#1083=CARTESIAN_POINT('',(0.,-16.5000002458692,7.00000006705523));
#1084=CARTESIAN_POINT('',(18.,-16.5000002458692,14.));
#1085=CARTESIAN_POINT('Origin',(0.,-35.9917938525928,6.505));
#1086=CARTESIAN_POINT('',(0.,-35.9917938525928,14.0000001341105));
#1087=CARTESIAN_POINT('',(18.,-35.9917938525928,14.));
#1088=CARTESIAN_POINT('',(0.,-35.9917938525928,3.25249999999999));
#1089=CARTESIAN_POINT('Origin',(0.,-46.0000006854534,7.90000014156103));
#1090=CARTESIAN_POINT('',(0.,-55.0000008195639,7.90000014156103));
#1091=CARTESIAN_POINT('',(0.,-55.0000008195639,7.90000014156103));
#1092=CARTESIAN_POINT('',(0.,-46.0000006854534,7.90000014156103));
#1093=CARTESIAN_POINT('',(0.,-56.0000003427267,7.90000014156103));
#1094=CARTESIAN_POINT('',(0.,-46.0000006854534,7.90000014156103));
#1095=CARTESIAN_POINT('Origin',(0.,-46.0000006854534,14.0000002086163));
#1096=CARTESIAN_POINT('',(0.,-46.0000006854534,14.0000002086163));
#1097=CARTESIAN_POINT('',(0.,-46.0000006854534,7.00000010430813));
#1098=CARTESIAN_POINT('',(18.,-46.0000006854534,14.));
#1099=CARTESIAN_POINT('Origin',(0.,-55.0000008195639,7.90000014156103));
#1100=CARTESIAN_POINT('',(0.,-55.0000008195639,14.0000002086163));
#1101=CARTESIAN_POINT('',(18.,-55.0000008195639,14.));
#1102=CARTESIAN_POINT('',(0.,-55.0000008195639,3.95000007078052));
#1103=CARTESIAN_POINT('Origin',(36.,-33.,14.));
#1104=CARTESIAN_POINT('',(61.2999986298382,-73.,14.));
#1105=CARTESIAN_POINT('',(73.,-73.,14.));
#1106=CARTESIAN_POINT('',(61.2999986298382,-66.,14.));
#1107=CARTESIAN_POINT('',(61.2999986298382,-29.7499997038394,14.));
#1108=CARTESIAN_POINT('',(0.,-66.,14.));
#1109=CARTESIAN_POINT('',(72.,-66.,14.));
#1110=CARTESIAN_POINT('',(0.,-66.,14.));
#1111=CARTESIAN_POINT('Origin',(36.,-33.,14.));
#1112=CARTESIAN_POINT('',(0.,0.,14.));
#1113=CARTESIAN_POINT('',(0.,-66.,14.));
#1114=CARTESIAN_POINT('',(50.499998871237,0.,13.9999998100102));
#1115=CARTESIAN_POINT('',(0.,0.,14.));
#1116=CARTESIAN_POINT('',(50.499998871237,7.,13.9999998100102));
#1117=CARTESIAN_POINT('',(50.499998871237,-16.5,14.));
#1118=CARTESIAN_POINT('',(-1.,7.,14.));
#1119=CARTESIAN_POINT('Origin',(50.499998871237,0.,7.09999984130263));
#1120=CARTESIAN_POINT('',(50.499998871237,7.,7.09999984130263));
#1121=CARTESIAN_POINT('',(50.499998871237,7.,3.54999992065132));
#1122=CARTESIAN_POINT('',(50.499998871237,0.,7.09999984130263));
#1123=CARTESIAN_POINT('',(50.499998871237,0.,3.54999992065132));
#1124=CARTESIAN_POINT('',(50.499998871237,0.,7.09999984130263));
#1125=CARTESIAN_POINT('Origin',(56.4999987371266,0.,7.09999984130263));
#1126=CARTESIAN_POINT('',(56.4999987371266,7.,7.09999984130263));
#1127=CARTESIAN_POINT('',(64.7499993685633,7.,7.09999984130263));
#1128=CARTESIAN_POINT('',(56.4999987371266,0.,7.09999984130263));
#1129=CARTESIAN_POINT('',(28.2499993685633,0.,7.09999984130263));
#1130=CARTESIAN_POINT('',(56.4999987371266,0.,7.09999984130263));
#1131=CARTESIAN_POINT('Origin',(56.4999987371266,0.,13.9999998100102));
#1132=CARTESIAN_POINT('',(56.4999987371266,7.,6.9999999050051));
#1133=CARTESIAN_POINT('',(56.4999987371266,0.,6.9999999050051));
#1134=CARTESIAN_POINT('Origin',(36.,-33.,14.));
#1135=CARTESIAN_POINT('',(0.,-66.,14.));
#1136=CARTESIAN_POINT('Origin',(73.,7.,0.));
#1137=CARTESIAN_POINT('Origin',(72.,0.,0.));
#1138=CARTESIAN_POINT('',(72.,-26.4999994076788,0.));
#1139=CARTESIAN_POINT('',(72.,0.,2.));
#1140=CARTESIAN_POINT('',(72.,0.,0.));
#1141=CARTESIAN_POINT('',(72.,-66.,2.));
#1142=CARTESIAN_POINT('',(72.,-16.5,2.));
#1143=CARTESIAN_POINT('',(72.,-66.,0.));
#1144=CARTESIAN_POINT('Origin',(73.,-26.4999994076788,0.));
#1145=CARTESIAN_POINT('Origin',(-0.999999999999996,-73.,0.));
#1146=CARTESIAN_POINT('',(61.2999986298382,-73.,0.));
#1147=CARTESIAN_POINT('Origin',(61.2999986298382,-26.4999994076788,0.));
#1148=CARTESIAN_POINT('',(61.2999986298382,-66.,0.));
#1149=CARTESIAN_POINT('Origin',(72.,-66.,0.));
#1150=CARTESIAN_POINT('',(0.,-66.,2.));
#1151=CARTESIAN_POINT('',(0.,-66.,0.));
#1152=CARTESIAN_POINT('',(54.,-66.,2.));
#1153=CARTESIAN_POINT('Origin',(0.,0.,0.));
#1154=CARTESIAN_POINT('',(0.,0.,2.));
#1155=CARTESIAN_POINT('',(0.,0.,0.));
#1156=CARTESIAN_POINT('',(18.,0.,2.));
#1157=CARTESIAN_POINT('Origin',(0.,-66.,0.));
#1158=CARTESIAN_POINT('',(0.,-49.5,2.));
#1159=CARTESIAN_POINT('Origin',(36.,-33.,2.));
#1160=UNCERTAINTY_MEASURE_WITH_UNIT(LENGTH_MEASURE(0.01),#1164,
'DISTANCE_ACCURACY_VALUE',
'Maximum model space distance between geometric entities at asserted c
onnectivities');
#1161=UNCERTAINTY_MEASURE_WITH_UNIT(LENGTH_MEASURE(0.01),#1164,
'DISTANCE_ACCURACY_VALUE',
'Maximum model space distance between geometric entities at asserted c
onnectivities');
#1162=(
GEOMETRIC_REPRESENTATION_CONTEXT(3)
GLOBAL_UNCERTAINTY_ASSIGNED_CONTEXT((#1160))
GLOBAL_UNIT_ASSIGNED_CONTEXT((#1164,#1166,#1167))
REPRESENTATION_CONTEXT('','3D')
);
#1163=(
GEOMETRIC_REPRESENTATION_CONTEXT(3)
GLOBAL_UNCERTAINTY_ASSIGNED_CONTEXT((#1161))
GLOBAL_UNIT_ASSIGNED_CONTEXT((#1164,#1166,#1167))
REPRESENTATION_CONTEXT('','3D')
);
#1164=(
LENGTH_UNIT()
NAMED_UNIT(*)
SI_UNIT(.MILLI.,.METRE.)
);
#1165=(
LENGTH_UNIT()
NAMED_UNIT(*)
SI_UNIT($,.METRE.)
);
#1166=(
NAMED_UNIT(*)
PLANE_ANGLE_UNIT()
SI_UNIT($,.RADIAN.)
);
#1167=(
NAMED_UNIT(*)
SI_UNIT($,.STERADIAN.)
SOLID_ANGLE_UNIT()
);
#1168=SHAPE_DEFINITION_REPRESENTATION(#1169,#1170);
#1169=PRODUCT_DEFINITION_SHAPE('',$,#1172);
#1170=SHAPE_REPRESENTATION('',(#716),#1162);
#1171=PRODUCT_DEFINITION_CONTEXT('part definition',#1176,'design');
#1172=PRODUCT_DEFINITION('2026-01-10-15-30-03-880','.wav player case',#1173,
#1171);
#1173=PRODUCT_DEFINITION_FORMATION('',$,#1178);
#1174=PRODUCT_RELATED_PRODUCT_CATEGORY('.wav player case',
'.wav player case',(#1178));
#1175=APPLICATION_PROTOCOL_DEFINITION('international standard',
'automotive_design',2009,#1176);
#1176=APPLICATION_CONTEXT(
'Core Data for Automotive Mechanical Design Process');
#1177=PRODUCT_CONTEXT('part definition',#1176,'mechanical');
#1178=PRODUCT('2026-01-10-15-30-03-880','.wav player case',$,(#1177));
#1179=PRESENTATION_STYLE_ASSIGNMENT((#1180));
#1180=SURFACE_STYLE_USAGE(.BOTH.,#1181);
#1181=SURFACE_SIDE_STYLE('',(#1182));
#1182=SURFACE_STYLE_FILL_AREA(#1183);
#1183=FILL_AREA_STYLE('Steel - Satin',(#1184));
#1184=FILL_AREA_STYLE_COLOUR('Steel - Satin',#1185);
#1185=COLOUR_RGB('Steel - Satin',0.627450980392157,0.627450980392157,0.627450980392157);
ENDSEC;
END-ISO-10303-21;
