ISO-10303-21;
HEADER;
/* Generated by software containing ST-Developer
 * from STEP Tools, Inc. (www.steptools.com) 
 */

FILE_DESCRIPTION(
/* description */ (''),
/* implementation_level */ '2;1');

FILE_NAME(
/* name */ '.wav player case lid.step',
/* time_stamp */ '2026-01-14T08:30:47+06:00',
/* author */ (''),
/* organization */ (''),
/* preprocessor_version */ 'ST-DEVELOPER v20.1',
/* originating_system */ 'Autodesk Translation Framework v14.21.0.0',
/* authorisation */ '');

FILE_SCHEMA (('AUTOMOTIVE_DESIGN { 1 0 10303 214 3 1 1 }'));
ENDSEC;

DATA;
#10=MECHANICAL_DESIGN_GEOMETRIC_PRESENTATION_REPRESENTATION('',(#13),#761);
#11=SHAPE_REPRESENTATION_RELATIONSHIP('SRR','None',#768,#12);
#12=ADVANCED_BREP_SHAPE_REPRESENTATION('',(#14),#760);
#13=STYLED_ITEM('',(#777),#14);
#14=MANIFOLD_SOLID_BREP('Lid',#457);
#15=FACE_BOUND('',#69,.T.);
#16=FACE_BOUND('',#70,.T.);
#17=FACE_BOUND('',#71,.T.);
#18=FACE_BOUND('',#72,.T.);
#19=FACE_BOUND('',#73,.T.);
#20=FACE_BOUND('',#96,.T.);
#21=FACE_BOUND('',#97,.T.);
#22=PLANE('',#474);
#23=PLANE('',#475);
#24=PLANE('',#483);
#25=PLANE('',#488);
#26=PLANE('',#491);
#27=PLANE('',#494);
#28=PLANE('',#495);
#29=PLANE('',#496);
#30=PLANE('',#497);
#31=PLANE('',#498);
#32=PLANE('',#499);
#33=PLANE('',#500);
#34=PLANE('',#501);
#35=PLANE('',#502);
#36=PLANE('',#503);
#37=PLANE('',#504);
#38=PLANE('',#505);
#39=PLANE('',#506);
#40=PLANE('',#507);
#41=FACE_OUTER_BOUND('',#66,.T.);
#42=FACE_OUTER_BOUND('',#67,.T.);
#43=FACE_OUTER_BOUND('',#68,.T.);
#44=FACE_OUTER_BOUND('',#74,.T.);
#45=FACE_OUTER_BOUND('',#75,.T.);
#46=FACE_OUTER_BOUND('',#76,.T.);
#47=FACE_OUTER_BOUND('',#77,.T.);
#48=FACE_OUTER_BOUND('',#78,.T.);
#49=FACE_OUTER_BOUND('',#79,.T.);
#50=FACE_OUTER_BOUND('',#80,.T.);
#51=FACE_OUTER_BOUND('',#81,.T.);
#52=FACE_OUTER_BOUND('',#82,.T.);
#53=FACE_OUTER_BOUND('',#83,.T.);
#54=FACE_OUTER_BOUND('',#84,.T.);
#55=FACE_OUTER_BOUND('',#85,.T.);
#56=FACE_OUTER_BOUND('',#86,.T.);
#57=FACE_OUTER_BOUND('',#87,.T.);
#58=FACE_OUTER_BOUND('',#88,.T.);
#59=FACE_OUTER_BOUND('',#89,.T.);
#60=FACE_OUTER_BOUND('',#90,.T.);
#61=FACE_OUTER_BOUND('',#91,.T.);
#62=FACE_OUTER_BOUND('',#92,.T.);
#63=FACE_OUTER_BOUND('',#93,.T.);
#64=FACE_OUTER_BOUND('',#94,.T.);
#65=FACE_OUTER_BOUND('',#95,.T.);
#66=EDGE_LOOP('',(#306,#307,#308,#309));
#67=EDGE_LOOP('',(#310,#311,#312,#313));
#68=EDGE_LOOP('',(#314,#315,#316,#317,#318,#319,#320,#321,#322));
#69=EDGE_LOOP('',(#323,#324,#325,#326));
#70=EDGE_LOOP('',(#327,#328,#329,#330));
#71=EDGE_LOOP('',(#331));
#72=EDGE_LOOP('',(#332));
#73=EDGE_LOOP('',(#333));
#74=EDGE_LOOP('',(#334,#335,#336,#337));
#75=EDGE_LOOP('',(#338,#339,#340,#341));
#76=EDGE_LOOP('',(#342,#343,#344,#345));
#77=EDGE_LOOP('',(#346,#347,#348,#349));
#78=EDGE_LOOP('',(#350));
#79=EDGE_LOOP('',(#351,#352,#353,#354));
#80=EDGE_LOOP('',(#355));
#81=EDGE_LOOP('',(#356,#357,#358,#359));
#82=EDGE_LOOP('',(#360));
#83=EDGE_LOOP('',(#361,#362,#363,#364));
#84=EDGE_LOOP('',(#365,#366,#367,#368));
#85=EDGE_LOOP('',(#369,#370,#371,#372));
#86=EDGE_LOOP('',(#373,#374,#375,#376));
#87=EDGE_LOOP('',(#377,#378,#379,#380));
#88=EDGE_LOOP('',(#381,#382,#383,#384));
#89=EDGE_LOOP('',(#385,#386,#387,#388));
#90=EDGE_LOOP('',(#389,#390,#391,#392));
#91=EDGE_LOOP('',(#393,#394,#395,#396));
#92=EDGE_LOOP('',(#397,#398,#399,#400));
#93=EDGE_LOOP('',(#401,#402,#403,#404));
#94=EDGE_LOOP('',(#405,#406,#407,#408));
#95=EDGE_LOOP('',(#409,#410,#411,#412,#413,#414,#415,#416,#417));
#96=EDGE_LOOP('',(#418,#419,#420,#421));
#97=EDGE_LOOP('',(#422,#423,#424,#425));
#98=LINE('',#638,#146);
#99=LINE('',#641,#147);
#100=LINE('',#644,#148);
#101=LINE('',#646,#149);
#102=LINE('',#647,#150);
#103=LINE('',#650,#151);
#104=LINE('',#652,#152);
#105=LINE('',#654,#153);
#106=LINE('',#656,#154);
#107=LINE('',#660,#155);
#108=LINE('',#664,#156);
#109=LINE('',#666,#157);
#110=LINE('',#668,#158);
#111=LINE('',#669,#159);
#112=LINE('',#672,#160);
#113=LINE('',#674,#161);
#114=LINE('',#676,#162);
#115=LINE('',#677,#163);
#116=LINE('',#687,#164);
#117=LINE('',#690,#165);
#118=LINE('',#691,#166);
#119=LINE('',#695,#167);
#120=LINE('',#698,#168);
#121=LINE('',#703,#169);
#122=LINE('',#708,#170);
#123=LINE('',#714,#171);
#124=LINE('',#715,#172);
#125=LINE('',#716,#173);
#126=LINE('',#719,#174);
#127=LINE('',#720,#175);
#128=LINE('',#723,#176);
#129=LINE('',#724,#177);
#130=LINE('',#726,#178);
#131=LINE('',#729,#179);
#132=LINE('',#731,#180);
#133=LINE('',#732,#181);
#134=LINE('',#735,#182);
#135=LINE('',#736,#183);
#136=LINE('',#739,#184);
#137=LINE('',#740,#185);
#138=LINE('',#742,#186);
#139=LINE('',#745,#187);
#140=LINE('',#746,#188);
#141=LINE('',#749,#189);
#142=LINE('',#750,#190);
#143=LINE('',#753,#191);
#144=LINE('',#754,#192);
#145=LINE('',#756,#193);
#146=VECTOR('',#514,10.);
#147=VECTOR('',#517,10.);
#148=VECTOR('',#520,10.);
#149=VECTOR('',#521,10.);
#150=VECTOR('',#522,10.);
#151=VECTOR('',#525,10.);
#152=VECTOR('',#526,10.);
#153=VECTOR('',#527,10.);
#154=VECTOR('',#528,10.);
#155=VECTOR('',#531,10.);
#156=VECTOR('',#534,10.);
#157=VECTOR('',#535,10.);
#158=VECTOR('',#536,10.);
#159=VECTOR('',#537,10.);
#160=VECTOR('',#538,10.);
#161=VECTOR('',#539,10.);
#162=VECTOR('',#540,10.);
#163=VECTOR('',#541,10.);
#164=VECTOR('',#552,10.);
#165=VECTOR('',#555,10.);
#166=VECTOR('',#556,10.);
#167=VECTOR('',#561,10.);
#168=VECTOR('',#564,3.1);
#169=VECTOR('',#571,3.1);
#170=VECTOR('',#578,3.1);
#171=VECTOR('',#585,10.);
#172=VECTOR('',#586,10.);
#173=VECTOR('',#587,10.);
#174=VECTOR('',#590,10.);
#175=VECTOR('',#591,10.);
#176=VECTOR('',#594,10.);
#177=VECTOR('',#595,10.);
#178=VECTOR('',#598,10.);
#179=VECTOR('',#601,10.);
#180=VECTOR('',#602,10.);
#181=VECTOR('',#603,10.);
#182=VECTOR('',#606,10.);
#183=VECTOR('',#607,10.);
#184=VECTOR('',#610,10.);
#185=VECTOR('',#611,10.);
#186=VECTOR('',#614,10.);
#187=VECTOR('',#617,10.);
#188=VECTOR('',#618,10.);
#189=VECTOR('',#621,10.);
#190=VECTOR('',#622,10.);
#191=VECTOR('',#625,10.);
#192=VECTOR('',#626,10.);
#193=VECTOR('',#629,10.);
#194=CIRCLE('',#472,1.);
#195=CIRCLE('',#473,1.);
#196=CIRCLE('',#476,1.);
#197=CIRCLE('',#477,1.);
#198=CIRCLE('',#478,3.1);
#199=CIRCLE('',#479,3.1);
#200=CIRCLE('',#480,3.1);
#201=CIRCLE('',#482,1.);
#202=CIRCLE('',#485,1.);
#203=CIRCLE('',#487,3.1);
#204=CIRCLE('',#490,3.1);
#205=CIRCLE('',#493,3.1);
#206=VERTEX_POINT('',#634);
#207=VERTEX_POINT('',#635);
#208=VERTEX_POINT('',#637);
#209=VERTEX_POINT('',#639);
#210=VERTEX_POINT('',#643);
#211=VERTEX_POINT('',#645);
#212=VERTEX_POINT('',#649);
#213=VERTEX_POINT('',#651);
#214=VERTEX_POINT('',#653);
#215=VERTEX_POINT('',#655);
#216=VERTEX_POINT('',#657);
#217=VERTEX_POINT('',#659);
#218=VERTEX_POINT('',#662);
#219=VERTEX_POINT('',#663);
#220=VERTEX_POINT('',#665);
#221=VERTEX_POINT('',#667);
#222=VERTEX_POINT('',#670);
#223=VERTEX_POINT('',#671);
#224=VERTEX_POINT('',#673);
#225=VERTEX_POINT('',#675);
#226=VERTEX_POINT('',#678);
#227=VERTEX_POINT('',#680);
#228=VERTEX_POINT('',#682);
#229=VERTEX_POINT('',#685);
#230=VERTEX_POINT('',#689);
#231=VERTEX_POINT('',#693);
#232=VERTEX_POINT('',#697);
#233=VERTEX_POINT('',#702);
#234=VERTEX_POINT('',#707);
#235=VERTEX_POINT('',#712);
#236=VERTEX_POINT('',#713);
#237=VERTEX_POINT('',#718);
#238=VERTEX_POINT('',#722);
#239=VERTEX_POINT('',#728);
#240=VERTEX_POINT('',#730);
#241=VERTEX_POINT('',#734);
#242=VERTEX_POINT('',#738);
#243=VERTEX_POINT('',#744);
#244=VERTEX_POINT('',#748);
#245=VERTEX_POINT('',#752);
#246=EDGE_CURVE('',#206,#207,#194,.T.);
#247=EDGE_CURVE('',#207,#208,#98,.T.);
#248=EDGE_CURVE('',#208,#209,#195,.T.);
#249=EDGE_CURVE('',#209,#206,#99,.T.);
#250=EDGE_CURVE('',#209,#210,#100,.T.);
#251=EDGE_CURVE('',#211,#210,#101,.T.);
#252=EDGE_CURVE('',#206,#211,#102,.T.);
#253=EDGE_CURVE('',#212,#208,#103,.T.);
#254=EDGE_CURVE('',#213,#212,#104,.T.);
#255=EDGE_CURVE('',#214,#213,#105,.T.);
#256=EDGE_CURVE('',#215,#214,#106,.T.);
#257=EDGE_CURVE('',#216,#215,#196,.T.);
#258=EDGE_CURVE('',#217,#216,#107,.T.);
#259=EDGE_CURVE('',#210,#217,#197,.T.);
#260=EDGE_CURVE('',#218,#219,#108,.T.);
#261=EDGE_CURVE('',#220,#218,#109,.T.);
#262=EDGE_CURVE('',#221,#220,#110,.T.);
#263=EDGE_CURVE('',#219,#221,#111,.T.);
#264=EDGE_CURVE('',#222,#223,#112,.T.);
#265=EDGE_CURVE('',#223,#224,#113,.T.);
#266=EDGE_CURVE('',#224,#225,#114,.T.);
#267=EDGE_CURVE('',#225,#222,#115,.T.);
#268=EDGE_CURVE('',#226,#226,#198,.T.);
#269=EDGE_CURVE('',#227,#227,#199,.T.);
#270=EDGE_CURVE('',#228,#228,#200,.T.);
#271=EDGE_CURVE('',#229,#211,#201,.T.);
#272=EDGE_CURVE('',#217,#229,#116,.T.);
#273=EDGE_CURVE('',#230,#216,#117,.T.);
#274=EDGE_CURVE('',#229,#230,#118,.T.);
#275=EDGE_CURVE('',#231,#230,#202,.T.);
#276=EDGE_CURVE('',#215,#231,#119,.T.);
#277=EDGE_CURVE('',#228,#232,#120,.T.);
#278=EDGE_CURVE('',#232,#232,#203,.T.);
#279=EDGE_CURVE('',#227,#233,#121,.T.);
#280=EDGE_CURVE('',#233,#233,#204,.T.);
#281=EDGE_CURVE('',#226,#234,#122,.T.);
#282=EDGE_CURVE('',#234,#234,#205,.T.);
#283=EDGE_CURVE('',#235,#236,#123,.T.);
#284=EDGE_CURVE('',#225,#235,#124,.T.);
#285=EDGE_CURVE('',#224,#236,#125,.T.);
#286=EDGE_CURVE('',#236,#237,#126,.T.);
#287=EDGE_CURVE('',#223,#237,#127,.T.);
#288=EDGE_CURVE('',#237,#238,#128,.T.);
#289=EDGE_CURVE('',#222,#238,#129,.T.);
#290=EDGE_CURVE('',#238,#235,#130,.T.);
#291=EDGE_CURVE('',#218,#239,#131,.T.);
#292=EDGE_CURVE('',#240,#239,#132,.T.);
#293=EDGE_CURVE('',#220,#240,#133,.T.);
#294=EDGE_CURVE('',#241,#240,#134,.T.);
#295=EDGE_CURVE('',#221,#241,#135,.T.);
#296=EDGE_CURVE('',#242,#241,#136,.T.);
#297=EDGE_CURVE('',#219,#242,#137,.T.);
#298=EDGE_CURVE('',#239,#242,#138,.T.);
#299=EDGE_CURVE('',#214,#243,#139,.T.);
#300=EDGE_CURVE('',#231,#243,#140,.T.);
#301=EDGE_CURVE('',#244,#207,#141,.T.);
#302=EDGE_CURVE('',#212,#244,#142,.T.);
#303=EDGE_CURVE('',#245,#244,#143,.T.);
#304=EDGE_CURVE('',#213,#245,#144,.T.);
#305=EDGE_CURVE('',#243,#245,#145,.T.);
#306=ORIENTED_EDGE('',*,*,#246,.T.);
#307=ORIENTED_EDGE('',*,*,#247,.T.);
#308=ORIENTED_EDGE('',*,*,#248,.T.);
#309=ORIENTED_EDGE('',*,*,#249,.T.);
#310=ORIENTED_EDGE('',*,*,#249,.F.);
#311=ORIENTED_EDGE('',*,*,#250,.T.);
#312=ORIENTED_EDGE('',*,*,#251,.F.);
#313=ORIENTED_EDGE('',*,*,#252,.F.);
#314=ORIENTED_EDGE('',*,*,#248,.F.);
#315=ORIENTED_EDGE('',*,*,#253,.F.);
#316=ORIENTED_EDGE('',*,*,#254,.F.);
#317=ORIENTED_EDGE('',*,*,#255,.F.);
#318=ORIENTED_EDGE('',*,*,#256,.F.);
#319=ORIENTED_EDGE('',*,*,#257,.F.);
#320=ORIENTED_EDGE('',*,*,#258,.F.);
#321=ORIENTED_EDGE('',*,*,#259,.F.);
#322=ORIENTED_EDGE('',*,*,#250,.F.);
#323=ORIENTED_EDGE('',*,*,#260,.F.);
#324=ORIENTED_EDGE('',*,*,#261,.F.);
#325=ORIENTED_EDGE('',*,*,#262,.F.);
#326=ORIENTED_EDGE('',*,*,#263,.F.);
#327=ORIENTED_EDGE('',*,*,#264,.T.);
#328=ORIENTED_EDGE('',*,*,#265,.T.);
#329=ORIENTED_EDGE('',*,*,#266,.T.);
#330=ORIENTED_EDGE('',*,*,#267,.T.);
#331=ORIENTED_EDGE('',*,*,#268,.T.);
#332=ORIENTED_EDGE('',*,*,#269,.T.);
#333=ORIENTED_EDGE('',*,*,#270,.T.);
#334=ORIENTED_EDGE('',*,*,#271,.T.);
#335=ORIENTED_EDGE('',*,*,#251,.T.);
#336=ORIENTED_EDGE('',*,*,#259,.T.);
#337=ORIENTED_EDGE('',*,*,#272,.T.);
#338=ORIENTED_EDGE('',*,*,#272,.F.);
#339=ORIENTED_EDGE('',*,*,#258,.T.);
#340=ORIENTED_EDGE('',*,*,#273,.F.);
#341=ORIENTED_EDGE('',*,*,#274,.F.);
#342=ORIENTED_EDGE('',*,*,#275,.T.);
#343=ORIENTED_EDGE('',*,*,#273,.T.);
#344=ORIENTED_EDGE('',*,*,#257,.T.);
#345=ORIENTED_EDGE('',*,*,#276,.T.);
#346=ORIENTED_EDGE('',*,*,#270,.F.);
#347=ORIENTED_EDGE('',*,*,#277,.T.);
#348=ORIENTED_EDGE('',*,*,#278,.T.);
#349=ORIENTED_EDGE('',*,*,#277,.F.);
#350=ORIENTED_EDGE('',*,*,#278,.F.);
#351=ORIENTED_EDGE('',*,*,#269,.F.);
#352=ORIENTED_EDGE('',*,*,#279,.T.);
#353=ORIENTED_EDGE('',*,*,#280,.T.);
#354=ORIENTED_EDGE('',*,*,#279,.F.);
#355=ORIENTED_EDGE('',*,*,#280,.F.);
#356=ORIENTED_EDGE('',*,*,#268,.F.);
#357=ORIENTED_EDGE('',*,*,#281,.T.);
#358=ORIENTED_EDGE('',*,*,#282,.T.);
#359=ORIENTED_EDGE('',*,*,#281,.F.);
#360=ORIENTED_EDGE('',*,*,#282,.F.);
#361=ORIENTED_EDGE('',*,*,#283,.F.);
#362=ORIENTED_EDGE('',*,*,#284,.F.);
#363=ORIENTED_EDGE('',*,*,#266,.F.);
#364=ORIENTED_EDGE('',*,*,#285,.T.);
#365=ORIENTED_EDGE('',*,*,#286,.F.);
#366=ORIENTED_EDGE('',*,*,#285,.F.);
#367=ORIENTED_EDGE('',*,*,#265,.F.);
#368=ORIENTED_EDGE('',*,*,#287,.T.);
#369=ORIENTED_EDGE('',*,*,#288,.F.);
#370=ORIENTED_EDGE('',*,*,#287,.F.);
#371=ORIENTED_EDGE('',*,*,#264,.F.);
#372=ORIENTED_EDGE('',*,*,#289,.T.);
#373=ORIENTED_EDGE('',*,*,#290,.F.);
#374=ORIENTED_EDGE('',*,*,#289,.F.);
#375=ORIENTED_EDGE('',*,*,#267,.F.);
#376=ORIENTED_EDGE('',*,*,#284,.T.);
#377=ORIENTED_EDGE('',*,*,#261,.T.);
#378=ORIENTED_EDGE('',*,*,#291,.T.);
#379=ORIENTED_EDGE('',*,*,#292,.F.);
#380=ORIENTED_EDGE('',*,*,#293,.F.);
#381=ORIENTED_EDGE('',*,*,#262,.T.);
#382=ORIENTED_EDGE('',*,*,#293,.T.);
#383=ORIENTED_EDGE('',*,*,#294,.F.);
#384=ORIENTED_EDGE('',*,*,#295,.F.);
#385=ORIENTED_EDGE('',*,*,#263,.T.);
#386=ORIENTED_EDGE('',*,*,#295,.T.);
#387=ORIENTED_EDGE('',*,*,#296,.F.);
#388=ORIENTED_EDGE('',*,*,#297,.F.);
#389=ORIENTED_EDGE('',*,*,#260,.T.);
#390=ORIENTED_EDGE('',*,*,#297,.T.);
#391=ORIENTED_EDGE('',*,*,#298,.F.);
#392=ORIENTED_EDGE('',*,*,#291,.F.);
#393=ORIENTED_EDGE('',*,*,#276,.F.);
#394=ORIENTED_EDGE('',*,*,#256,.T.);
#395=ORIENTED_EDGE('',*,*,#299,.T.);
#396=ORIENTED_EDGE('',*,*,#300,.F.);
#397=ORIENTED_EDGE('',*,*,#247,.F.);
#398=ORIENTED_EDGE('',*,*,#301,.F.);
#399=ORIENTED_EDGE('',*,*,#302,.F.);
#400=ORIENTED_EDGE('',*,*,#253,.T.);
#401=ORIENTED_EDGE('',*,*,#254,.T.);
#402=ORIENTED_EDGE('',*,*,#302,.T.);
#403=ORIENTED_EDGE('',*,*,#303,.F.);
#404=ORIENTED_EDGE('',*,*,#304,.F.);
#405=ORIENTED_EDGE('',*,*,#255,.T.);
#406=ORIENTED_EDGE('',*,*,#304,.T.);
#407=ORIENTED_EDGE('',*,*,#305,.F.);
#408=ORIENTED_EDGE('',*,*,#299,.F.);
#409=ORIENTED_EDGE('',*,*,#246,.F.);
#410=ORIENTED_EDGE('',*,*,#252,.T.);
#411=ORIENTED_EDGE('',*,*,#271,.F.);
#412=ORIENTED_EDGE('',*,*,#274,.T.);
#413=ORIENTED_EDGE('',*,*,#275,.F.);
#414=ORIENTED_EDGE('',*,*,#300,.T.);
#415=ORIENTED_EDGE('',*,*,#305,.T.);
#416=ORIENTED_EDGE('',*,*,#303,.T.);
#417=ORIENTED_EDGE('',*,*,#301,.T.);
#418=ORIENTED_EDGE('',*,*,#288,.T.);
#419=ORIENTED_EDGE('',*,*,#290,.T.);
#420=ORIENTED_EDGE('',*,*,#283,.T.);
#421=ORIENTED_EDGE('',*,*,#286,.T.);
#422=ORIENTED_EDGE('',*,*,#298,.T.);
#423=ORIENTED_EDGE('',*,*,#296,.T.);
#424=ORIENTED_EDGE('',*,*,#294,.T.);
#425=ORIENTED_EDGE('',*,*,#292,.T.);
#426=CYLINDRICAL_SURFACE('',#471,1.);
#427=CYLINDRICAL_SURFACE('',#481,1.);
#428=CYLINDRICAL_SURFACE('',#484,1.);
#429=CYLINDRICAL_SURFACE('',#486,3.1);
#430=CYLINDRICAL_SURFACE('',#489,3.1);
#431=CYLINDRICAL_SURFACE('',#492,3.1);
#432=ADVANCED_FACE('',(#41),#426,.T.);
#433=ADVANCED_FACE('',(#42),#22,.T.);
#434=ADVANCED_FACE('',(#43,#15,#16,#17,#18,#19),#23,.F.);
#435=ADVANCED_FACE('',(#44),#427,.T.);
#436=ADVANCED_FACE('',(#45),#24,.T.);
#437=ADVANCED_FACE('',(#46),#428,.T.);
#438=ADVANCED_FACE('',(#47),#429,.F.);
#439=ADVANCED_FACE('',(#48),#25,.T.);
#440=ADVANCED_FACE('',(#49),#430,.F.);
#441=ADVANCED_FACE('',(#50),#26,.T.);
#442=ADVANCED_FACE('',(#51),#431,.F.);
#443=ADVANCED_FACE('',(#52),#27,.T.);
#444=ADVANCED_FACE('',(#53),#28,.F.);
#445=ADVANCED_FACE('',(#54),#29,.F.);
#446=ADVANCED_FACE('',(#55),#30,.F.);
#447=ADVANCED_FACE('',(#56),#31,.F.);
#448=ADVANCED_FACE('',(#57),#32,.T.);
#449=ADVANCED_FACE('',(#58),#33,.T.);
#450=ADVANCED_FACE('',(#59),#34,.T.);
#451=ADVANCED_FACE('',(#60),#35,.T.);
#452=ADVANCED_FACE('',(#61),#36,.T.);
#453=ADVANCED_FACE('',(#62),#37,.T.);
#454=ADVANCED_FACE('',(#63),#38,.T.);
#455=ADVANCED_FACE('',(#64),#39,.T.);
#456=ADVANCED_FACE('',(#65,#20,#21),#40,.T.);
#457=CLOSED_SHELL('',(#432,#433,#434,#435,#436,#437,#438,#439,#440,#441,
#442,#443,#444,#445,#446,#447,#448,#449,#450,#451,#452,#453,#454,#455,#456));
#458=DERIVED_UNIT_ELEMENT(#460,1.);
#459=DERIVED_UNIT_ELEMENT(#763,-3.);
#460=(
MASS_UNIT()
NAMED_UNIT(*)
SI_UNIT(.KILO.,.GRAM.)
);
#461=DERIVED_UNIT((#458,#459));
#462=MEASURE_REPRESENTATION_ITEM('density measure',
POSITIVE_RATIO_MEASURE(7850.),#461);
#463=PROPERTY_DEFINITION_REPRESENTATION(#468,#465);
#464=PROPERTY_DEFINITION_REPRESENTATION(#469,#466);
#465=REPRESENTATION('material name',(#467),#760);
#466=REPRESENTATION('density',(#462),#760);
#467=DESCRIPTIVE_REPRESENTATION_ITEM('Steel','Steel');
#468=PROPERTY_DEFINITION('material property','material name',#770);
#469=PROPERTY_DEFINITION('material property','density of part',#770);
#470=AXIS2_PLACEMENT_3D('',#632,#508,#509);
#471=AXIS2_PLACEMENT_3D('',#633,#510,#511);
#472=AXIS2_PLACEMENT_3D('',#636,#512,#513);
#473=AXIS2_PLACEMENT_3D('',#640,#515,#516);
#474=AXIS2_PLACEMENT_3D('',#642,#518,#519);
#475=AXIS2_PLACEMENT_3D('',#648,#523,#524);
#476=AXIS2_PLACEMENT_3D('',#658,#529,#530);
#477=AXIS2_PLACEMENT_3D('',#661,#532,#533);
#478=AXIS2_PLACEMENT_3D('',#679,#542,#543);
#479=AXIS2_PLACEMENT_3D('',#681,#544,#545);
#480=AXIS2_PLACEMENT_3D('',#683,#546,#547);
#481=AXIS2_PLACEMENT_3D('',#684,#548,#549);
#482=AXIS2_PLACEMENT_3D('',#686,#550,#551);
#483=AXIS2_PLACEMENT_3D('',#688,#553,#554);
#484=AXIS2_PLACEMENT_3D('',#692,#557,#558);
#485=AXIS2_PLACEMENT_3D('',#694,#559,#560);
#486=AXIS2_PLACEMENT_3D('',#696,#562,#563);
#487=AXIS2_PLACEMENT_3D('',#699,#565,#566);
#488=AXIS2_PLACEMENT_3D('',#700,#567,#568);
#489=AXIS2_PLACEMENT_3D('',#701,#569,#570);
#490=AXIS2_PLACEMENT_3D('',#704,#572,#573);
#491=AXIS2_PLACEMENT_3D('',#705,#574,#575);
#492=AXIS2_PLACEMENT_3D('',#706,#576,#577);
#493=AXIS2_PLACEMENT_3D('',#709,#579,#580);
#494=AXIS2_PLACEMENT_3D('',#710,#581,#582);
#495=AXIS2_PLACEMENT_3D('',#711,#583,#584);
#496=AXIS2_PLACEMENT_3D('',#717,#588,#589);
#497=AXIS2_PLACEMENT_3D('',#721,#592,#593);
#498=AXIS2_PLACEMENT_3D('',#725,#596,#597);
#499=AXIS2_PLACEMENT_3D('',#727,#599,#600);
#500=AXIS2_PLACEMENT_3D('',#733,#604,#605);
#501=AXIS2_PLACEMENT_3D('',#737,#608,#609);
#502=AXIS2_PLACEMENT_3D('',#741,#612,#613);
#503=AXIS2_PLACEMENT_3D('',#743,#615,#616);
#504=AXIS2_PLACEMENT_3D('',#747,#619,#620);
#505=AXIS2_PLACEMENT_3D('',#751,#623,#624);
#506=AXIS2_PLACEMENT_3D('',#755,#627,#628);
#507=AXIS2_PLACEMENT_3D('',#757,#630,#631);
#508=DIRECTION('axis',(0.,0.,1.));
#509=DIRECTION('refdir',(1.,0.,0.));
#510=DIRECTION('center_axis',(1.22464679914735E-16,0.,-1.));
#511=DIRECTION('ref_axis',(-0.707106781186546,0.707106781186549,-8.65956056235491E-17));
#512=DIRECTION('center_axis',(-1.22464679914735E-16,0.,1.));
#513=DIRECTION('ref_axis',(-0.707106781186546,0.707106781186549,-8.65956056235491E-17));
#514=DIRECTION('',(-1.22464679914735E-16,0.,1.));
#515=DIRECTION('center_axis',(1.22464679914735E-16,0.,-1.));
#516=DIRECTION('ref_axis',(-0.707106781186546,0.707106781186549,-8.65956056235491E-17));
#517=DIRECTION('',(1.22464679914735E-16,0.,-1.));
#518=DIRECTION('center_axis',(0.,1.,0.));
#519=DIRECTION('ref_axis',(1.,0.,1.22464679914735E-16));
#520=DIRECTION('',(1.,0.,1.22464679914735E-16));
#521=DIRECTION('',(-1.22464679914735E-16,0.,1.));
#522=DIRECTION('',(1.,0.,1.22464679914735E-16));
#523=DIRECTION('center_axis',(1.22464679914735E-16,0.,-1.));
#524=DIRECTION('ref_axis',(-1.,0.,-1.22464679914735E-16));
#525=DIRECTION('',(0.,1.,0.));
#526=DIRECTION('',(-1.,0.,-1.22464679914735E-16));
#527=DIRECTION('',(0.,1.,0.));
#528=DIRECTION('',(-1.,0.,-1.22464679914735E-16));
#529=DIRECTION('center_axis',(1.22464679914735E-16,0.,-1.));
#530=DIRECTION('ref_axis',(0.707106781186548,-0.707106781186547,8.65956056235494E-17));
#531=DIRECTION('',(0.,-1.,0.));
#532=DIRECTION('center_axis',(1.22464679914735E-16,0.,-1.));
#533=DIRECTION('ref_axis',(0.707106781186548,0.707106781186547,8.65956056235494E-17));
#534=DIRECTION('',(0.,1.,0.));
#535=DIRECTION('',(1.,0.,1.22464679914735E-16));
#536=DIRECTION('',(0.,-1.,0.));
#537=DIRECTION('',(-1.,0.,-1.22464679914735E-16));
#538=DIRECTION('',(1.,0.,1.22464679914735E-16));
#539=DIRECTION('',(0.,-1.,0.));
#540=DIRECTION('',(-1.,0.,-1.22464679914735E-16));
#541=DIRECTION('',(0.,1.,0.));
#542=DIRECTION('center_axis',(1.22464679914735E-16,0.,-1.));
#543=DIRECTION('ref_axis',(-1.,0.,-1.22464679914735E-16));
#544=DIRECTION('center_axis',(1.22464679914735E-16,0.,-1.));
#545=DIRECTION('ref_axis',(-1.,0.,-1.22464679914735E-16));
#546=DIRECTION('center_axis',(1.22464679914735E-16,0.,-1.));
#547=DIRECTION('ref_axis',(-1.,0.,-1.22464679914735E-16));
#548=DIRECTION('center_axis',(1.22464679914735E-16,0.,-1.));
#549=DIRECTION('ref_axis',(0.707106781186548,0.707106781186547,8.65956056235494E-17));
#550=DIRECTION('center_axis',(-1.22464679914735E-16,0.,1.));
#551=DIRECTION('ref_axis',(0.707106781186548,0.707106781186547,8.65956056235494E-17));
#552=DIRECTION('',(1.22464679914735E-16,0.,-1.));
#553=DIRECTION('center_axis',(1.,0.,1.22464679914735E-16));
#554=DIRECTION('ref_axis',(0.,-1.,0.));
#555=DIRECTION('',(-1.22464679914735E-16,0.,1.));
#556=DIRECTION('',(0.,-1.,0.));
#557=DIRECTION('center_axis',(1.22464679914735E-16,0.,-1.));
#558=DIRECTION('ref_axis',(0.707106781186548,-0.707106781186547,8.65956056235494E-17));
#559=DIRECTION('center_axis',(-1.22464679914735E-16,0.,1.));
#560=DIRECTION('ref_axis',(0.707106781186548,-0.707106781186547,8.65956056235494E-17));
#561=DIRECTION('',(1.22464679914735E-16,0.,-1.));
#562=DIRECTION('center_axis',(1.22464679914735E-16,0.,-1.));
#563=DIRECTION('ref_axis',(-1.,0.,-1.22464679914735E-16));
#564=DIRECTION('',(1.22464679914735E-16,0.,-1.));
#565=DIRECTION('center_axis',(1.22464679914735E-16,0.,-1.));
#566=DIRECTION('ref_axis',(-1.,0.,-1.22464679914735E-16));
#567=DIRECTION('center_axis',(-1.22464679914735E-16,0.,1.));
#568=DIRECTION('ref_axis',(-1.,0.,-1.22464679914735E-16));
#569=DIRECTION('center_axis',(1.22464679914735E-16,0.,-1.));
#570=DIRECTION('ref_axis',(-1.,0.,-1.22464679914735E-16));
#571=DIRECTION('',(1.22464679914735E-16,0.,-1.));
#572=DIRECTION('center_axis',(1.22464679914735E-16,0.,-1.));
#573=DIRECTION('ref_axis',(-1.,0.,-1.22464679914735E-16));
#574=DIRECTION('center_axis',(-1.22464679914735E-16,0.,1.));
#575=DIRECTION('ref_axis',(-1.,0.,-1.22464679914735E-16));
#576=DIRECTION('center_axis',(1.22464679914735E-16,0.,-1.));
#577=DIRECTION('ref_axis',(-1.,0.,-1.22464679914735E-16));
#578=DIRECTION('',(1.22464679914735E-16,0.,-1.));
#579=DIRECTION('center_axis',(1.22464679914735E-16,0.,-1.));
#580=DIRECTION('ref_axis',(-1.,0.,-1.22464679914735E-16));
#581=DIRECTION('center_axis',(-1.22464679914735E-16,0.,1.));
#582=DIRECTION('ref_axis',(-1.,0.,-1.22464679914735E-16));
#583=DIRECTION('center_axis',(0.,-1.,0.));
#584=DIRECTION('ref_axis',(-1.,0.,-1.22464679914735E-16));
#585=DIRECTION('',(1.,0.,1.22464679914735E-16));
#586=DIRECTION('',(1.22464679914735E-16,0.,-1.));
#587=DIRECTION('',(1.22464679914735E-16,0.,-1.));
#588=DIRECTION('center_axis',(1.,0.,1.22464679914735E-16));
#589=DIRECTION('ref_axis',(0.,-1.,0.));
#590=DIRECTION('',(0.,1.,0.));
#591=DIRECTION('',(1.22464679914735E-16,0.,-1.));
#592=DIRECTION('center_axis',(0.,1.,0.));
#593=DIRECTION('ref_axis',(1.,0.,1.22464679914735E-16));
#594=DIRECTION('',(-1.,0.,-1.22464679914735E-16));
#595=DIRECTION('',(1.22464679914735E-16,0.,-1.));
#596=DIRECTION('center_axis',(-1.,0.,-1.22464679914735E-16));
#597=DIRECTION('ref_axis',(0.,1.,0.));
#598=DIRECTION('',(0.,-1.,0.));
#599=DIRECTION('center_axis',(0.,1.,0.));
#600=DIRECTION('ref_axis',(1.,0.,1.22464679914735E-16));
#601=DIRECTION('',(1.22464679914735E-16,0.,-1.));
#602=DIRECTION('',(1.,0.,1.22464679914735E-16));
#603=DIRECTION('',(1.22464679914735E-16,0.,-1.));
#604=DIRECTION('center_axis',(1.,0.,1.22464679914735E-16));
#605=DIRECTION('ref_axis',(0.,-1.,0.));
#606=DIRECTION('',(0.,-1.,0.));
#607=DIRECTION('',(1.22464679914735E-16,0.,-1.));
#608=DIRECTION('center_axis',(0.,-1.,0.));
#609=DIRECTION('ref_axis',(-1.,0.,-1.22464679914735E-16));
#610=DIRECTION('',(-1.,0.,-1.22464679914735E-16));
#611=DIRECTION('',(1.22464679914735E-16,0.,-1.));
#612=DIRECTION('center_axis',(-1.,0.,-1.22464679914735E-16));
#613=DIRECTION('ref_axis',(0.,1.,0.));
#614=DIRECTION('',(0.,1.,0.));
#615=DIRECTION('center_axis',(0.,-1.,0.));
#616=DIRECTION('ref_axis',(-1.,0.,-1.22464679914735E-16));
#617=DIRECTION('',(1.22464679914735E-16,0.,-1.));
#618=DIRECTION('',(-1.,0.,-1.22464679914735E-16));
#619=DIRECTION('center_axis',(-1.,0.,-1.22464679914735E-16));
#620=DIRECTION('ref_axis',(0.,1.,0.));
#621=DIRECTION('',(0.,1.,0.));
#622=DIRECTION('',(1.22464679914735E-16,0.,-1.));
#623=DIRECTION('center_axis',(0.,-1.,0.));
#624=DIRECTION('ref_axis',(-1.,0.,-1.22464679914735E-16));
#625=DIRECTION('',(-1.,0.,-1.22464679914735E-16));
#626=DIRECTION('',(1.22464679914735E-16,0.,-1.));
#627=DIRECTION('center_axis',(-1.,0.,-1.22464679914735E-16));
#628=DIRECTION('ref_axis',(0.,1.,0.));
#629=DIRECTION('',(0.,1.,0.));
#630=DIRECTION('center_axis',(1.22464679914735E-16,0.,-1.));
#631=DIRECTION('ref_axis',(-1.,0.,-1.22464679914735E-16));
#632=CARTESIAN_POINT('',(0.,0.,0.));
#633=CARTESIAN_POINT('Origin',(-97.,6.,3.99999999999999));
#634=CARTESIAN_POINT('',(-97.,7.,0.999999999999979));
#635=CARTESIAN_POINT('',(-98.,6.,0.999999999999979));
#636=CARTESIAN_POINT('Origin',(-97.,6.,0.999999999999979));
#637=CARTESIAN_POINT('',(-98.,6.,3.99999999999999));
#638=CARTESIAN_POINT('',(-98.,6.,3.99999999999999));
#639=CARTESIAN_POINT('',(-97.,7.,3.99999999999999));
#640=CARTESIAN_POINT('Origin',(-97.,6.,3.99999999999999));
#641=CARTESIAN_POINT('',(-97.,7.,3.99999999999999));
#642=CARTESIAN_POINT('Origin',(-92.,7.,3.99999999999999));
#643=CARTESIAN_POINT('',(-13.,7.,3.99999999999999));
#644=CARTESIAN_POINT('',(-92.,7.,3.99999999999999));
#645=CARTESIAN_POINT('',(-13.,7.,0.99999999999999));
#646=CARTESIAN_POINT('',(-13.,7.,3.99999999999999));
#647=CARTESIAN_POINT('',(-92.,7.,0.999999999999979));
#648=CARTESIAN_POINT('Origin',(-55.,-33.,3.99999999999999));
#649=CARTESIAN_POINT('',(-98.,-26.4999994076788,3.99999999999999));
#650=CARTESIAN_POINT('',(-98.,-67.,3.99999999999999));
#651=CARTESIAN_POINT('',(-80.2999986298382,-26.4999994076788,3.99999999999999));
#652=CARTESIAN_POINT('',(-80.2999986298382,-26.4999994076788,3.99999999999999));
#653=CARTESIAN_POINT('',(-80.2999986298382,-73.,3.99999999999999));
#654=CARTESIAN_POINT('',(-80.2999986298382,-67.,3.99999999999999));
#655=CARTESIAN_POINT('',(-13.,-73.,3.99999999999999));
#656=CARTESIAN_POINT('',(-18.,-73.,3.99999999999999));
#657=CARTESIAN_POINT('',(-12.,-72.,3.99999999999999));
#658=CARTESIAN_POINT('Origin',(-13.,-72.,3.99999999999999));
#659=CARTESIAN_POINT('',(-12.,6.,3.99999999999999));
#660=CARTESIAN_POINT('',(-12.,0.999999999999996,3.99999999999999));
#661=CARTESIAN_POINT('Origin',(-13.,6.,3.99999999999999));
#662=CARTESIAN_POINT('',(-43.0000003576279,-20.0000003576279,3.99999999999999));
#663=CARTESIAN_POINT('',(-43.0000003576279,-1.19979385259282,3.99999999999999));
#664=CARTESIAN_POINT('',(-43.0000003576279,-4.69979385259282,3.99999999999999));
#665=CARTESIAN_POINT('',(-70.8646504469344,-20.0000003576279,3.99999999999999));
#666=CARTESIAN_POINT('',(-43.0000003576279,-20.0000003576279,3.99999999999999));
#667=CARTESIAN_POINT('',(-70.8646504469344,-1.19979385259282,3.99999999999999));
#668=CARTESIAN_POINT('',(-70.8646504469344,-24.0000003576279,3.99999999999999));
#669=CARTESIAN_POINT('',(-70.8646504469344,-1.19979385259282,3.99999999999999));
#670=CARTESIAN_POINT('',(-61.243324861874,-28.7303310266844,3.99999999999999));
#671=CARTESIAN_POINT('',(-41.0000003278255,-28.7303310266844,3.99999999999999));
#672=CARTESIAN_POINT('',(-57.721662430937,-28.7303310266844,3.99999999999999));
#673=CARTESIAN_POINT('',(-41.0000003278255,-36.0000005215406,3.99999999999999));
#674=CARTESIAN_POINT('',(-41.0000003278255,-30.8651655133422,3.99999999999999));
#675=CARTESIAN_POINT('',(-61.243324861874,-36.0000005215406,3.99999999999999));
#676=CARTESIAN_POINT('',(-48.0000001639128,-36.0000005215406,3.99999999999999));
#677=CARTESIAN_POINT('',(-61.243324861874,-34.5000002607703,3.99999999999999));
#678=CARTESIAN_POINT('',(-12.8999999552965,-69.0000010281801,3.99999999999999));
#679=CARTESIAN_POINT('Origin',(-15.9999999552965,-69.0000010281801,3.99999999999999));
#680=CARTESIAN_POINT('',(-12.9,2.99999999999999,3.99999999999999));
#681=CARTESIAN_POINT('Origin',(-16.,2.99999999999999,3.99999999999999));
#682=CARTESIAN_POINT('',(-90.9,3.,3.99999999999999));
#683=CARTESIAN_POINT('Origin',(-94.,3.,3.99999999999999));
#684=CARTESIAN_POINT('Origin',(-13.,6.,3.99999999999999));
#685=CARTESIAN_POINT('',(-12.,6.,0.99999999999999));
#686=CARTESIAN_POINT('Origin',(-13.,6.,0.99999999999999));
#687=CARTESIAN_POINT('',(-12.,6.,3.99999999999999));
#688=CARTESIAN_POINT('Origin',(-12.,0.999999999999996,3.99999999999999));
#689=CARTESIAN_POINT('',(-12.,-72.,0.99999999999999));
#690=CARTESIAN_POINT('',(-12.,-72.,3.99999999999999));
#691=CARTESIAN_POINT('',(-12.,0.999999999999996,0.99999999999999));
#692=CARTESIAN_POINT('Origin',(-13.,-72.,3.99999999999999));
#693=CARTESIAN_POINT('',(-13.,-73.,0.99999999999999));
#694=CARTESIAN_POINT('Origin',(-13.,-72.,0.99999999999999));
#695=CARTESIAN_POINT('',(-13.,-73.,3.99999999999999));
#696=CARTESIAN_POINT('Origin',(-94.,3.,3.99999999999999));
#697=CARTESIAN_POINT('',(-90.9,3.,2.29999999999999));
#698=CARTESIAN_POINT('',(-90.9,3.,3.99999999999999));
#699=CARTESIAN_POINT('Origin',(-94.,3.,2.29999999999999));
#700=CARTESIAN_POINT('Origin',(-94.,3.,2.29999999999999));
#701=CARTESIAN_POINT('Origin',(-16.,2.99999999999999,3.99999999999999));
#702=CARTESIAN_POINT('',(-12.9,2.99999999999999,2.3));
#703=CARTESIAN_POINT('',(-12.9,2.99999999999999,4.));
#704=CARTESIAN_POINT('Origin',(-16.,2.99999999999999,2.3));
#705=CARTESIAN_POINT('Origin',(-16.,2.99999999999999,2.3));
#706=CARTESIAN_POINT('Origin',(-15.9999999552965,-69.0000010281801,3.99999999999999));
#707=CARTESIAN_POINT('',(-12.8999999552965,-69.0000010281801,2.3));
#708=CARTESIAN_POINT('',(-12.8999999552965,-69.0000010281801,4.));
#709=CARTESIAN_POINT('Origin',(-15.9999999552965,-69.0000010281801,2.3));
#710=CARTESIAN_POINT('Origin',(-15.9999999552965,-69.0000010281801,2.3));
#711=CARTESIAN_POINT('Origin',(-41.0000003278255,-36.0000005215406,11.415));
#712=CARTESIAN_POINT('',(-61.243324861874,-36.0000005215406,0.999999999999983));
#713=CARTESIAN_POINT('',(-41.0000003278255,-36.0000005215406,0.999999999999985));
#714=CARTESIAN_POINT('',(-48.0000001639128,-36.0000005215406,0.999999999999985));
#715=CARTESIAN_POINT('',(-61.243324861874,-36.0000005215406,11.415));
#716=CARTESIAN_POINT('',(-41.0000003278255,-36.0000005215406,11.415));
#717=CARTESIAN_POINT('Origin',(-41.0000003278255,-28.7303310266844,11.415));
#718=CARTESIAN_POINT('',(-41.0000003278255,-28.7303310266844,0.999999999999985));
#719=CARTESIAN_POINT('',(-41.0000003278255,-30.8651655133422,0.999999999999985));
#720=CARTESIAN_POINT('',(-41.0000003278255,-28.7303310266844,11.415));
#721=CARTESIAN_POINT('Origin',(-60.443324861874,-28.7303310266844,11.415));
#722=CARTESIAN_POINT('',(-61.243324861874,-28.7303310266844,0.999999999999983));
#723=CARTESIAN_POINT('',(-57.721662430937,-28.7303310266844,0.999999999999983));
#724=CARTESIAN_POINT('',(-61.243324861874,-28.7303310266844,11.415));
#725=CARTESIAN_POINT('Origin',(-61.243324861874,-36.0000005215406,11.415));
#726=CARTESIAN_POINT('',(-61.243324861874,-34.5000002607703,0.999999999999983));
#727=CARTESIAN_POINT('Origin',(-70.8646504469344,-20.0000003576279,3.99999999999999));
#728=CARTESIAN_POINT('',(-43.0000003576279,-20.0000003576279,0.999999999999985));
#729=CARTESIAN_POINT('',(-43.0000003576279,-20.0000003576279,3.99999999999999));
#730=CARTESIAN_POINT('',(-70.8646504469344,-20.0000003576279,0.999999999999981));
#731=CARTESIAN_POINT('',(-43.0000003576279,-20.0000003576279,0.999999999999985));
#732=CARTESIAN_POINT('',(-70.8646504469344,-20.0000003576279,3.99999999999999));
#733=CARTESIAN_POINT('Origin',(-70.8646504469344,-4.69979385259282,3.99999999999999));
#734=CARTESIAN_POINT('',(-70.8646504469344,-1.19979385259282,0.999999999999981));
#735=CARTESIAN_POINT('',(-70.8646504469344,-24.0000003576279,0.999999999999981));
#736=CARTESIAN_POINT('',(-70.8646504469344,-1.19979385259282,3.99999999999999));
#737=CARTESIAN_POINT('Origin',(-43.0000003576279,-1.19979385259282,3.99999999999999));
#738=CARTESIAN_POINT('',(-43.0000003576279,-1.19979385259282,0.999999999999985));
#739=CARTESIAN_POINT('',(-70.8646504469344,-1.19979385259282,0.999999999999981));
#740=CARTESIAN_POINT('',(-43.0000003576279,-1.19979385259282,3.99999999999999));
#741=CARTESIAN_POINT('Origin',(-43.0000003576279,-24.0000003576279,3.99999999999999));
#742=CARTESIAN_POINT('',(-43.0000003576279,-4.69979385259282,0.999999999999985));
#743=CARTESIAN_POINT('Origin',(-18.,-73.,3.99999999999999));
#744=CARTESIAN_POINT('',(-80.2999986298382,-73.,0.999999999999981));
#745=CARTESIAN_POINT('',(-80.2999986298382,-73.,3.99999999999999));
#746=CARTESIAN_POINT('',(-18.,-73.,0.999999999999988));
#747=CARTESIAN_POINT('Origin',(-98.,-26.4999994076788,3.99999999999999));
#748=CARTESIAN_POINT('',(-98.,-26.4999994076788,0.999999999999979));
#749=CARTESIAN_POINT('',(-98.,-67.,0.999999999999979));
#750=CARTESIAN_POINT('',(-98.,-26.4999994076788,3.99999999999999));
#751=CARTESIAN_POINT('Origin',(-80.2999986298382,-26.4999994076788,3.99999999999999));
#752=CARTESIAN_POINT('',(-80.2999986298382,-26.4999994076788,0.999999999999981));
#753=CARTESIAN_POINT('',(-80.2999986298382,-26.4999994076788,0.999999999999981));
#754=CARTESIAN_POINT('',(-80.2999986298382,-26.4999994076788,3.99999999999999));
#755=CARTESIAN_POINT('Origin',(-80.2999986298382,-67.,3.99999999999999));
#756=CARTESIAN_POINT('',(-80.2999986298382,-67.,0.999999999999981));
#757=CARTESIAN_POINT('Origin',(-55.,-33.,0.999999999999983));
#758=UNCERTAINTY_MEASURE_WITH_UNIT(LENGTH_MEASURE(0.01),#762,
'DISTANCE_ACCURACY_VALUE',
'Maximum model space distance between geometric entities at asserted c
onnectivities');
#759=UNCERTAINTY_MEASURE_WITH_UNIT(LENGTH_MEASURE(0.01),#762,
'DISTANCE_ACCURACY_VALUE',
'Maximum model space distance between geometric entities at asserted c
onnectivities');
#760=(
GEOMETRIC_REPRESENTATION_CONTEXT(3)
GLOBAL_UNCERTAINTY_ASSIGNED_CONTEXT((#758))
GLOBAL_UNIT_ASSIGNED_CONTEXT((#762,#764,#765))
REPRESENTATION_CONTEXT('','3D')
);
#761=(
GEOMETRIC_REPRESENTATION_CONTEXT(3)
GLOBAL_UNCERTAINTY_ASSIGNED_CONTEXT((#759))
GLOBAL_UNIT_ASSIGNED_CONTEXT((#762,#764,#765))
REPRESENTATION_CONTEXT('','3D')
);
#762=(
LENGTH_UNIT()
NAMED_UNIT(*)
SI_UNIT(.MILLI.,.METRE.)
);
#763=(
LENGTH_UNIT()
NAMED_UNIT(*)
SI_UNIT($,.METRE.)
);
#764=(
NAMED_UNIT(*)
PLANE_ANGLE_UNIT()
SI_UNIT($,.RADIAN.)
);
#765=(
NAMED_UNIT(*)
SI_UNIT($,.STERADIAN.)
SOLID_ANGLE_UNIT()
);
#766=SHAPE_DEFINITION_REPRESENTATION(#767,#768);
#767=PRODUCT_DEFINITION_SHAPE('',$,#770);
#768=SHAPE_REPRESENTATION('',(#470),#760);
#769=PRODUCT_DEFINITION_CONTEXT('part definition',#774,'design');
#770=PRODUCT_DEFINITION('2026-01-10-15-30-03-880','.wav player case',#771,
#769);
#771=PRODUCT_DEFINITION_FORMATION('',$,#776);
#772=PRODUCT_RELATED_PRODUCT_CATEGORY('.wav player case',
'.wav player case',(#776));
#773=APPLICATION_PROTOCOL_DEFINITION('international standard',
'automotive_design',2009,#774);
#774=APPLICATION_CONTEXT(
'Core Data for Automotive Mechanical Design Process');
#775=PRODUCT_CONTEXT('part definition',#774,'mechanical');
#776=PRODUCT('2026-01-10-15-30-03-880','.wav player case',$,(#775));
#777=PRESENTATION_STYLE_ASSIGNMENT((#778));
#778=SURFACE_STYLE_USAGE(.BOTH.,#779);
#779=SURFACE_SIDE_STYLE('',(#780));
#780=SURFACE_STYLE_FILL_AREA(#781);
#781=FILL_AREA_STYLE('Steel - Satin',(#782));
#782=FILL_AREA_STYLE_COLOUR('Steel - Satin',#783);
#783=COLOUR_RGB('Steel - Satin',0.627450980392157,0.627450980392157,0.627450980392157);
ENDSEC;
END-ISO-10303-21;
