ISO-10303-21;
HEADER;
/* Generated by software containing ST-Developer
 * from STEP Tools, Inc. (www.steptools.com) 
 */

FILE_DESCRIPTION(
/* description */ (''),
/* implementation_level */ '2;1');

FILE_NAME(
/* name */ '.wav player case button cover.step',
/* time_stamp */ '2026-01-14T08:31:42+06:00',
/* author */ (''),
/* organization */ (''),
/* preprocessor_version */ 'ST-DEVELOPER v20.1',
/* originating_system */ 'Autodesk Translation Framework v14.21.0.0',
/* authorisation */ '');

FILE_SCHEMA (('AUTOMOTIVE_DESIGN { 1 0 10303 214 3 1 1 }'));
ENDSEC;

DATA;
#10=MECHANICAL_DESIGN_GEOMETRIC_PRESENTATION_REPRESENTATION('',(#13),#362);
#11=SHAPE_REPRESENTATION_RELATIONSHIP('SRR','None',#369,#12);
#12=ADVANCED_BREP_SHAPE_REPRESENTATION('',(#14),#361);
#13=STYLED_ITEM('',(#378),#14);
#14=MANIFOLD_SOLID_BREP('Button cover',#214);
#15=FACE_BOUND('',#50,.T.);
#16=PLANE('',#231);
#17=PLANE('',#232);
#18=PLANE('',#233);
#19=PLANE('',#234);
#20=PLANE('',#235);
#21=PLANE('',#236);
#22=PLANE('',#237);
#23=PLANE('',#241);
#24=PLANE('',#242);
#25=PLANE('',#243);
#26=FACE_OUTER_BOUND('',#38,.T.);
#27=FACE_OUTER_BOUND('',#39,.T.);
#28=FACE_OUTER_BOUND('',#40,.T.);
#29=FACE_OUTER_BOUND('',#41,.T.);
#30=FACE_OUTER_BOUND('',#42,.T.);
#31=FACE_OUTER_BOUND('',#43,.T.);
#32=FACE_OUTER_BOUND('',#44,.T.);
#33=FACE_OUTER_BOUND('',#45,.T.);
#34=FACE_OUTER_BOUND('',#46,.T.);
#35=FACE_OUTER_BOUND('',#47,.T.);
#36=FACE_OUTER_BOUND('',#48,.T.);
#37=FACE_OUTER_BOUND('',#49,.T.);
#38=EDGE_LOOP('',(#146,#147,#148,#149));
#39=EDGE_LOOP('',(#150));
#40=EDGE_LOOP('',(#151,#152,#153,#154));
#41=EDGE_LOOP('',(#155,#156,#157,#158));
#42=EDGE_LOOP('',(#159,#160,#161,#162));
#43=EDGE_LOOP('',(#163,#164,#165,#166,#167,#168));
#44=EDGE_LOOP('',(#169,#170,#171,#172,#173,#174));
#45=EDGE_LOOP('',(#175,#176,#177,#178));
#46=EDGE_LOOP('',(#179,#180,#181,#182));
#47=EDGE_LOOP('',(#183,#184,#185,#186));
#48=EDGE_LOOP('',(#187,#188,#189,#190,#191));
#49=EDGE_LOOP('',(#192,#193,#194,#195,#196,#197,#198));
#50=EDGE_LOOP('',(#199));
#51=LINE('',#306,#74);
#52=LINE('',#312,#75);
#53=LINE('',#314,#76);
#54=LINE('',#316,#77);
#55=LINE('',#317,#78);
#56=LINE('',#320,#79);
#57=LINE('',#322,#80);
#58=LINE('',#323,#81);
#59=LINE('',#326,#82);
#60=LINE('',#327,#83);
#61=LINE('',#330,#84);
#62=LINE('',#332,#85);
#63=LINE('',#334,#86);
#64=LINE('',#335,#87);
#65=LINE('',#338,#88);
#66=LINE('',#340,#89);
#67=LINE('',#341,#90);
#68=LINE('',#344,#91);
#69=LINE('',#346,#92);
#70=LINE('',#347,#93);
#71=LINE('',#353,#94);
#72=LINE('',#355,#95);
#73=LINE('',#356,#96);
#74=VECTOR('',#250,3.1);
#75=VECTOR('',#257,10.);
#76=VECTOR('',#258,10.);
#77=VECTOR('',#259,10.);
#78=VECTOR('',#260,10.);
#79=VECTOR('',#263,10.);
#80=VECTOR('',#264,10.);
#81=VECTOR('',#265,10.);
#82=VECTOR('',#268,10.);
#83=VECTOR('',#269,10.);
#84=VECTOR('',#272,10.);
#85=VECTOR('',#273,10.);
#86=VECTOR('',#274,10.);
#87=VECTOR('',#275,10.);
#88=VECTOR('',#278,10.);
#89=VECTOR('',#279,10.);
#90=VECTOR('',#280,10.);
#91=VECTOR('',#283,10.);
#92=VECTOR('',#284,10.);
#93=VECTOR('',#285,10.);
#94=VECTOR('',#292,10.);
#95=VECTOR('',#295,10.);
#96=VECTOR('',#296,10.);
#97=CIRCLE('',#229,3.1);
#98=CIRCLE('',#230,3.1);
#99=CIRCLE('',#239,0.999999999999996);
#100=CIRCLE('',#240,0.999999999999996);
#101=VERTEX_POINT('',#303);
#102=VERTEX_POINT('',#305);
#103=VERTEX_POINT('',#310);
#104=VERTEX_POINT('',#311);
#105=VERTEX_POINT('',#313);
#106=VERTEX_POINT('',#315);
#107=VERTEX_POINT('',#319);
#108=VERTEX_POINT('',#321);
#109=VERTEX_POINT('',#325);
#110=VERTEX_POINT('',#329);
#111=VERTEX_POINT('',#331);
#112=VERTEX_POINT('',#333);
#113=VERTEX_POINT('',#337);
#114=VERTEX_POINT('',#339);
#115=VERTEX_POINT('',#343);
#116=VERTEX_POINT('',#345);
#117=VERTEX_POINT('',#349);
#118=VERTEX_POINT('',#351);
#119=EDGE_CURVE('',#101,#101,#97,.T.);
#120=EDGE_CURVE('',#101,#102,#51,.T.);
#121=EDGE_CURVE('',#102,#102,#98,.T.);
#122=EDGE_CURVE('',#103,#104,#52,.T.);
#123=EDGE_CURVE('',#103,#105,#53,.T.);
#124=EDGE_CURVE('',#106,#105,#54,.T.);
#125=EDGE_CURVE('',#104,#106,#55,.T.);
#126=EDGE_CURVE('',#107,#104,#56,.T.);
#127=EDGE_CURVE('',#107,#108,#57,.T.);
#128=EDGE_CURVE('',#108,#103,#58,.T.);
#129=EDGE_CURVE('',#109,#106,#59,.T.);
#130=EDGE_CURVE('',#109,#107,#60,.T.);
#131=EDGE_CURVE('',#108,#110,#61,.T.);
#132=EDGE_CURVE('',#110,#111,#62,.T.);
#133=EDGE_CURVE('',#111,#112,#63,.T.);
#134=EDGE_CURVE('',#105,#112,#64,.T.);
#135=EDGE_CURVE('',#113,#109,#65,.T.);
#136=EDGE_CURVE('',#114,#112,#66,.T.);
#137=EDGE_CURVE('',#113,#114,#67,.T.);
#138=EDGE_CURVE('',#115,#113,#68,.T.);
#139=EDGE_CURVE('',#116,#114,#69,.T.);
#140=EDGE_CURVE('',#115,#116,#70,.T.);
#141=EDGE_CURVE('',#117,#115,#99,.T.);
#142=EDGE_CURVE('',#118,#116,#100,.T.);
#143=EDGE_CURVE('',#117,#118,#71,.T.);
#144=EDGE_CURVE('',#110,#117,#72,.T.);
#145=EDGE_CURVE('',#111,#118,#73,.T.);
#146=ORIENTED_EDGE('',*,*,#119,.F.);
#147=ORIENTED_EDGE('',*,*,#120,.T.);
#148=ORIENTED_EDGE('',*,*,#121,.T.);
#149=ORIENTED_EDGE('',*,*,#120,.F.);
#150=ORIENTED_EDGE('',*,*,#121,.F.);
#151=ORIENTED_EDGE('',*,*,#122,.F.);
#152=ORIENTED_EDGE('',*,*,#123,.T.);
#153=ORIENTED_EDGE('',*,*,#124,.F.);
#154=ORIENTED_EDGE('',*,*,#125,.F.);
#155=ORIENTED_EDGE('',*,*,#122,.T.);
#156=ORIENTED_EDGE('',*,*,#126,.F.);
#157=ORIENTED_EDGE('',*,*,#127,.T.);
#158=ORIENTED_EDGE('',*,*,#128,.T.);
#159=ORIENTED_EDGE('',*,*,#125,.T.);
#160=ORIENTED_EDGE('',*,*,#129,.F.);
#161=ORIENTED_EDGE('',*,*,#130,.T.);
#162=ORIENTED_EDGE('',*,*,#126,.T.);
#163=ORIENTED_EDGE('',*,*,#131,.T.);
#164=ORIENTED_EDGE('',*,*,#132,.T.);
#165=ORIENTED_EDGE('',*,*,#133,.T.);
#166=ORIENTED_EDGE('',*,*,#134,.F.);
#167=ORIENTED_EDGE('',*,*,#123,.F.);
#168=ORIENTED_EDGE('',*,*,#128,.F.);
#169=ORIENTED_EDGE('',*,*,#135,.T.);
#170=ORIENTED_EDGE('',*,*,#129,.T.);
#171=ORIENTED_EDGE('',*,*,#124,.T.);
#172=ORIENTED_EDGE('',*,*,#134,.T.);
#173=ORIENTED_EDGE('',*,*,#136,.F.);
#174=ORIENTED_EDGE('',*,*,#137,.F.);
#175=ORIENTED_EDGE('',*,*,#138,.T.);
#176=ORIENTED_EDGE('',*,*,#137,.T.);
#177=ORIENTED_EDGE('',*,*,#139,.F.);
#178=ORIENTED_EDGE('',*,*,#140,.F.);
#179=ORIENTED_EDGE('',*,*,#141,.T.);
#180=ORIENTED_EDGE('',*,*,#140,.T.);
#181=ORIENTED_EDGE('',*,*,#142,.F.);
#182=ORIENTED_EDGE('',*,*,#143,.F.);
#183=ORIENTED_EDGE('',*,*,#144,.T.);
#184=ORIENTED_EDGE('',*,*,#143,.T.);
#185=ORIENTED_EDGE('',*,*,#145,.F.);
#186=ORIENTED_EDGE('',*,*,#132,.F.);
#187=ORIENTED_EDGE('',*,*,#145,.T.);
#188=ORIENTED_EDGE('',*,*,#142,.T.);
#189=ORIENTED_EDGE('',*,*,#139,.T.);
#190=ORIENTED_EDGE('',*,*,#136,.T.);
#191=ORIENTED_EDGE('',*,*,#133,.F.);
#192=ORIENTED_EDGE('',*,*,#144,.F.);
#193=ORIENTED_EDGE('',*,*,#131,.F.);
#194=ORIENTED_EDGE('',*,*,#127,.F.);
#195=ORIENTED_EDGE('',*,*,#130,.F.);
#196=ORIENTED_EDGE('',*,*,#135,.F.);
#197=ORIENTED_EDGE('',*,*,#138,.F.);
#198=ORIENTED_EDGE('',*,*,#141,.F.);
#199=ORIENTED_EDGE('',*,*,#119,.T.);
#200=CYLINDRICAL_SURFACE('',#228,3.1);
#201=CYLINDRICAL_SURFACE('',#238,0.999999999999996);
#202=ADVANCED_FACE('',(#26),#200,.F.);
#203=ADVANCED_FACE('',(#27),#16,.T.);
#204=ADVANCED_FACE('',(#28),#17,.T.);
#205=ADVANCED_FACE('',(#29),#18,.T.);
#206=ADVANCED_FACE('',(#30),#19,.T.);
#207=ADVANCED_FACE('',(#31),#20,.T.);
#208=ADVANCED_FACE('',(#32),#21,.T.);
#209=ADVANCED_FACE('',(#33),#22,.T.);
#210=ADVANCED_FACE('',(#34),#201,.T.);
#211=ADVANCED_FACE('',(#35),#23,.T.);
#212=ADVANCED_FACE('',(#36),#24,.T.);
#213=ADVANCED_FACE('',(#37,#15),#25,.F.);
#214=CLOSED_SHELL('',(#202,#203,#204,#205,#206,#207,#208,#209,#210,#211,
#212,#213));
#215=DERIVED_UNIT_ELEMENT(#217,1.);
#216=DERIVED_UNIT_ELEMENT(#364,-3.);
#217=(
MASS_UNIT()
NAMED_UNIT(*)
SI_UNIT(.KILO.,.GRAM.)
);
#218=DERIVED_UNIT((#215,#216));
#219=MEASURE_REPRESENTATION_ITEM('density measure',
POSITIVE_RATIO_MEASURE(7850.),#218);
#220=PROPERTY_DEFINITION_REPRESENTATION(#225,#222);
#221=PROPERTY_DEFINITION_REPRESENTATION(#226,#223);
#222=REPRESENTATION('material name',(#224),#361);
#223=REPRESENTATION('density',(#219),#361);
#224=DESCRIPTIVE_REPRESENTATION_ITEM('Steel','Steel');
#225=PROPERTY_DEFINITION('material property','material name',#371);
#226=PROPERTY_DEFINITION('material property','density of part',#371);
#227=AXIS2_PLACEMENT_3D('',#301,#244,#245);
#228=AXIS2_PLACEMENT_3D('',#302,#246,#247);
#229=AXIS2_PLACEMENT_3D('',#304,#248,#249);
#230=AXIS2_PLACEMENT_3D('',#307,#251,#252);
#231=AXIS2_PLACEMENT_3D('',#308,#253,#254);
#232=AXIS2_PLACEMENT_3D('',#309,#255,#256);
#233=AXIS2_PLACEMENT_3D('',#318,#261,#262);
#234=AXIS2_PLACEMENT_3D('',#324,#266,#267);
#235=AXIS2_PLACEMENT_3D('',#328,#270,#271);
#236=AXIS2_PLACEMENT_3D('',#336,#276,#277);
#237=AXIS2_PLACEMENT_3D('',#342,#281,#282);
#238=AXIS2_PLACEMENT_3D('',#348,#286,#287);
#239=AXIS2_PLACEMENT_3D('',#350,#288,#289);
#240=AXIS2_PLACEMENT_3D('',#352,#290,#291);
#241=AXIS2_PLACEMENT_3D('',#354,#293,#294);
#242=AXIS2_PLACEMENT_3D('',#357,#297,#298);
#243=AXIS2_PLACEMENT_3D('',#358,#299,#300);
#244=DIRECTION('axis',(0.,0.,1.));
#245=DIRECTION('refdir',(1.,0.,0.));
#246=DIRECTION('center_axis',(1.22464679914735E-16,0.,-1.));
#247=DIRECTION('ref_axis',(-1.,0.,-1.22464679914735E-16));
#248=DIRECTION('center_axis',(1.22464679914735E-16,0.,-1.));
#249=DIRECTION('ref_axis',(-1.,0.,-1.22464679914735E-16));
#250=DIRECTION('',(1.22464679914735E-16,0.,-1.));
#251=DIRECTION('center_axis',(1.22464679914735E-16,0.,-1.));
#252=DIRECTION('ref_axis',(-1.,0.,-1.22464679914735E-16));
#253=DIRECTION('center_axis',(-1.22464679914735E-16,0.,1.));
#254=DIRECTION('ref_axis',(-1.,0.,-1.22464679914735E-16));
#255=DIRECTION('center_axis',(-1.22464679914735E-16,0.,1.));
#256=DIRECTION('ref_axis',(1.,0.,1.22464679914735E-16));
#257=DIRECTION('',(-1.,0.,-1.22464679914735E-16));
#258=DIRECTION('',(0.,1.,0.));
#259=DIRECTION('',(1.,0.,1.22464679914735E-16));
#260=DIRECTION('',(0.,1.,0.));
#261=DIRECTION('center_axis',(0.,1.,0.));
#262=DIRECTION('ref_axis',(1.,0.,1.22464679914735E-16));
#263=DIRECTION('',(1.22464679914735E-16,0.,-1.));
#264=DIRECTION('',(1.,0.,1.22464679914735E-16));
#265=DIRECTION('',(1.22464679914735E-16,0.,-1.));
#266=DIRECTION('center_axis',(1.,0.,1.22464679914735E-16));
#267=DIRECTION('ref_axis',(0.,-1.,0.));
#268=DIRECTION('',(1.22464679914735E-16,0.,-1.));
#269=DIRECTION('',(0.,-1.,0.));
#270=DIRECTION('center_axis',(1.,0.,1.22464679914735E-16));
#271=DIRECTION('ref_axis',(0.,-1.,0.));
#272=DIRECTION('',(0.,-1.,0.));
#273=DIRECTION('',(1.22464679914735E-16,0.,-1.));
#274=DIRECTION('',(0.,1.,0.));
#275=DIRECTION('',(1.22464679914735E-16,0.,-1.));
#276=DIRECTION('center_axis',(0.,1.,0.));
#277=DIRECTION('ref_axis',(1.,0.,1.22464679914735E-16));
#278=DIRECTION('',(1.,0.,1.22464679914735E-16));
#279=DIRECTION('',(1.,0.,1.22464679914735E-16));
#280=DIRECTION('',(1.22464679914735E-16,0.,-1.));
#281=DIRECTION('center_axis',(-1.,0.,-1.22464679914735E-16));
#282=DIRECTION('ref_axis',(0.,1.,0.));
#283=DIRECTION('',(0.,1.,0.));
#284=DIRECTION('',(0.,1.,0.));
#285=DIRECTION('',(1.22464679914735E-16,0.,-1.));
#286=DIRECTION('center_axis',(1.22464679914735E-16,0.,-1.));
#287=DIRECTION('ref_axis',(0.,-1.,0.));
#288=DIRECTION('center_axis',(1.22464679914735E-16,0.,-1.));
#289=DIRECTION('ref_axis',(0.,-1.,0.));
#290=DIRECTION('center_axis',(1.22464679914735E-16,0.,-1.));
#291=DIRECTION('ref_axis',(0.,-1.,0.));
#292=DIRECTION('',(1.22464679914735E-16,0.,-1.));
#293=DIRECTION('center_axis',(0.,-1.,0.));
#294=DIRECTION('ref_axis',(-1.,0.,-1.22464679914735E-16));
#295=DIRECTION('',(-1.,0.,-1.22464679914735E-16));
#296=DIRECTION('',(-1.,0.,-1.22464679914735E-16));
#297=DIRECTION('center_axis',(1.22464679914735E-16,0.,-1.));
#298=DIRECTION('ref_axis',(1.,0.,1.22464679914735E-16));
#299=DIRECTION('center_axis',(1.22464679914735E-16,0.,-1.));
#300=DIRECTION('ref_axis',(1.,0.,1.22464679914735E-16));
#301=CARTESIAN_POINT('',(0.,0.,0.));
#302=CARTESIAN_POINT('Origin',(48.5999972373247,-69.,8.));
#303=CARTESIAN_POINT('',(51.6999972373247,-69.,8.));
#304=CARTESIAN_POINT('Origin',(48.5999972373247,-69.,8.));
#305=CARTESIAN_POINT('',(51.6999972373247,-69.,6.3));
#306=CARTESIAN_POINT('',(51.6999972373247,-69.,8.));
#307=CARTESIAN_POINT('Origin',(48.5999972373247,-69.,6.3));
#308=CARTESIAN_POINT('Origin',(48.5999972373247,-69.,6.3));
#309=CARTESIAN_POINT('Origin',(51.5999972373247,-66.,2.00000031292439));
#310=CARTESIAN_POINT('',(61.7999986186624,-66.,2.00000031292439));
#311=CARTESIAN_POINT('',(51.5999972373247,-66.,2.00000031292439));
#312=CARTESIAN_POINT('',(51.5999972373247,-66.,2.00000031292439));
#313=CARTESIAN_POINT('',(61.7999986186624,-27.,2.00000031292439));
#314=CARTESIAN_POINT('',(61.7999986186624,-66.,2.00000031292439));
#315=CARTESIAN_POINT('',(51.5999972373247,-27.,2.00000031292439));
#316=CARTESIAN_POINT('',(61.7999986186624,-27.,2.00000031292439));
#317=CARTESIAN_POINT('',(51.5999972373247,-46.2499997038394,2.00000031292439));
#318=CARTESIAN_POINT('Origin',(51.5999972373247,-66.,8.));
#319=CARTESIAN_POINT('',(51.5999972373247,-66.,8.));
#320=CARTESIAN_POINT('',(51.5999972373247,-66.,8.));
#321=CARTESIAN_POINT('',(61.7999986074865,-66.,8.));
#322=CARTESIAN_POINT('',(51.5999972373247,-66.,8.));
#323=CARTESIAN_POINT('',(61.7999986074865,-66.,8.));
#324=CARTESIAN_POINT('Origin',(51.5999972373247,-26.4999994076788,8.));
#325=CARTESIAN_POINT('',(51.5999972373247,-26.9999994076788,8.));
#326=CARTESIAN_POINT('',(51.5999972373247,-26.9999994076788,8.));
#327=CARTESIAN_POINT('',(51.5999972373247,-26.4999994076788,8.));
#328=CARTESIAN_POINT('Origin',(61.7999986074865,-66.,8.));
#329=CARTESIAN_POINT('',(61.7999986074865,-73.,8.));
#330=CARTESIAN_POINT('',(61.7999986074865,-66.,8.));
#331=CARTESIAN_POINT('',(61.7999986074865,-73.,-0.999999999999999));
#332=CARTESIAN_POINT('',(61.7999986074865,-73.,8.));
#333=CARTESIAN_POINT('',(61.7999986186624,-27.,-0.999999999999999));
#334=CARTESIAN_POINT('',(61.7999986186624,-66.,-0.999999999999999));
#335=CARTESIAN_POINT('',(61.7999986186624,-27.,-0.999999999999999));
#336=CARTESIAN_POINT('Origin',(44.5999972373247,-26.9999994076788,8.));
#337=CARTESIAN_POINT('',(44.5999972373247,-26.9999994076788,8.));
#338=CARTESIAN_POINT('',(44.5999972373247,-26.9999994076788,8.));
#339=CARTESIAN_POINT('',(44.5999972373247,-26.9999994076788,-1.));
#340=CARTESIAN_POINT('',(44.5999972373247,-26.9999994076788,-1.));
#341=CARTESIAN_POINT('',(44.5999972373247,-26.9999994076788,8.));
#342=CARTESIAN_POINT('Origin',(44.5999972373247,-72.,8.));
#343=CARTESIAN_POINT('',(44.5999972373247,-72.,8.));
#344=CARTESIAN_POINT('',(44.5999972373247,-72.,8.));
#345=CARTESIAN_POINT('',(44.5999972373247,-72.,-1.));
#346=CARTESIAN_POINT('',(44.5999972373247,-72.,-1.));
#347=CARTESIAN_POINT('',(44.5999972373247,-72.,8.));
#348=CARTESIAN_POINT('Origin',(45.5999972373247,-72.,8.));
#349=CARTESIAN_POINT('',(45.5999972373247,-73.,8.));
#350=CARTESIAN_POINT('Origin',(45.5999972373247,-72.,8.));
#351=CARTESIAN_POINT('',(45.5999972373247,-73.,-1.));
#352=CARTESIAN_POINT('Origin',(45.5999972373247,-72.,-1.));
#353=CARTESIAN_POINT('',(45.5999972373247,-73.,8.));
#354=CARTESIAN_POINT('Origin',(62.2999986074865,-73.,8.));
#355=CARTESIAN_POINT('',(62.2999986074865,-73.,8.));
#356=CARTESIAN_POINT('',(62.2999986074865,-73.,-0.999999999999999));
#357=CARTESIAN_POINT('Origin',(53.4499979224056,-49.7499997038394,-1.));
#358=CARTESIAN_POINT('Origin',(53.4499979224056,-49.7499997038394,8.));
#359=UNCERTAINTY_MEASURE_WITH_UNIT(LENGTH_MEASURE(0.01),#363,
'DISTANCE_ACCURACY_VALUE',
'Maximum model space distance between geometric entities at asserted c
onnectivities');
#360=UNCERTAINTY_MEASURE_WITH_UNIT(LENGTH_MEASURE(0.01),#363,
'DISTANCE_ACCURACY_VALUE',
'Maximum model space distance between geometric entities at asserted c
onnectivities');
#361=(
GEOMETRIC_REPRESENTATION_CONTEXT(3)
GLOBAL_UNCERTAINTY_ASSIGNED_CONTEXT((#359))
GLOBAL_UNIT_ASSIGNED_CONTEXT((#363,#365,#366))
REPRESENTATION_CONTEXT('','3D')
);
#362=(
GEOMETRIC_REPRESENTATION_CONTEXT(3)
GLOBAL_UNCERTAINTY_ASSIGNED_CONTEXT((#360))
GLOBAL_UNIT_ASSIGNED_CONTEXT((#363,#365,#366))
REPRESENTATION_CONTEXT('','3D')
);
#363=(
LENGTH_UNIT()
NAMED_UNIT(*)
SI_UNIT(.MILLI.,.METRE.)
);
#364=(
LENGTH_UNIT()
NAMED_UNIT(*)
SI_UNIT($,.METRE.)
);
#365=(
NAMED_UNIT(*)
PLANE_ANGLE_UNIT()
SI_UNIT($,.RADIAN.)
);
#366=(
NAMED_UNIT(*)
SI_UNIT($,.STERADIAN.)
SOLID_ANGLE_UNIT()
);
#367=SHAPE_DEFINITION_REPRESENTATION(#368,#369);
#368=PRODUCT_DEFINITION_SHAPE('',$,#371);
#369=SHAPE_REPRESENTATION('',(#227),#361);
#370=PRODUCT_DEFINITION_CONTEXT('part definition',#375,'design');
#371=PRODUCT_DEFINITION('2026-01-10-15-30-03-880','.wav player case',#372,
#370);
#372=PRODUCT_DEFINITION_FORMATION('',$,#377);
#373=PRODUCT_RELATED_PRODUCT_CATEGORY('.wav player case',
'.wav player case',(#377));
#374=APPLICATION_PROTOCOL_DEFINITION('international standard',
'automotive_design',2009,#375);
#375=APPLICATION_CONTEXT(
'Core Data for Automotive Mechanical Design Process');
#376=PRODUCT_CONTEXT('part definition',#375,'mechanical');
#377=PRODUCT('2026-01-10-15-30-03-880','.wav player case',$,(#376));
#378=PRESENTATION_STYLE_ASSIGNMENT((#379));
#379=SURFACE_STYLE_USAGE(.BOTH.,#380);
#380=SURFACE_SIDE_STYLE('',(#381));
#381=SURFACE_STYLE_FILL_AREA(#382);
#382=FILL_AREA_STYLE('Steel - Satin',(#383));
#383=FILL_AREA_STYLE_COLOUR('Steel - Satin',#384);
#384=COLOUR_RGB('Steel - Satin',0.627450980392157,0.627450980392157,0.627450980392157);
ENDSEC;
END-ISO-10303-21;
